<?xml version="1.0" encoding="UTF-8"?>
<svg xmlns="http://www.w3.org/2000/svg" xmlns:xlink="http://www.w3.org/1999/xlink" width="167.32pt" height="110.15pt" viewBox="0 0 167.32 110.15" version="1.1">
<defs>
<clipPath id="clip1">
  <path d="M 0 95 L 167.320313 95 L 167.320313 110.148438 L 0 110.148438 Z M 0 95 "/>
</clipPath>
</defs>
<g id="surface1">
<g clip-path="url(#clip1)" clip-rule="nonzero">
<path style=" stroke:none;fill-rule:nonzero;fill:rgb(88.198853%,12.199402%,14.898682%);fill-opacity:1;" d="M 166.683594 98.953125 L 166.414063 100.230469 C 165.03125 99.847656 163.5625 102.71875 163.171875 104.75 L 162.855469 106.398438 L 161.535156 106.398438 L 162.945313 99.085938 L 164.238281 99.085938 C 164.117188 99.71875 163.90625 100.496094 163.472656 101.777344 C 164.34375 100.011719 165.242188 98.71875 166.683594 98.953125 Z M 159.320313 100.777344 C 159.320313 100.246094 158.914063 99.953125 158.316406 99.953125 C 157.128906 99.953125 156.335938 100.96875 155.988281 102.203125 C 158.300781 102.113281 159.320313 101.660156 159.320313 100.777344 Z M 160.65625 100.613281 C 160.65625 102.1875 159.019531 103.058594 155.824219 103.175781 C 155.777344 103.394531 155.746094 103.765625 155.746094 104.027344 C 155.746094 105.160156 156.152344 105.457031 157.355469 105.457031 C 158.058594 105.457031 158.808594 105.292969 159.457031 105.027344 L 159.457031 106.085938 C 158.734375 106.367188 157.863281 106.527344 156.890625 106.527344 C 155.179688 106.527344 154.382813 105.808594 154.382813 104.160156 C 154.382813 101.320313 155.988281 98.953125 158.464844 98.953125 C 160.054688 98.953125 160.65625 99.746094 160.65625 100.613281 Z M 152.871094 101.425781 L 151.894531 106.398438 L 150.574219 106.398438 L 151.488281 101.71875 C 151.714844 100.570313 151.503906 100.070313 150.828125 100.070313 C 149.449219 100.070313 147.914063 102.9375 147.570313 104.75 L 147.257813 106.398438 L 145.933594 106.398438 L 148.023438 95.65625 L 149.34375 95.65625 L 148.664063 99.085938 C 148.546875 99.65625 148.382813 100.363281 147.828125 101.96875 C 148.5625 100.425781 149.746094 98.9375 151.308594 98.9375 C 152.691406 98.9375 153.171875 99.894531 152.871094 101.425781 Z M 145.550781 99.085938 L 145.339844 100.113281 L 143.316406 100.113281 L 142.578125 103.9375 C 142.371094 105.074219 142.519531 105.382813 143.253906 105.382813 C 143.675781 105.382813 143.992188 105.335938 144.289063 105.265625 L 144.199219 106.367188 C 143.765625 106.457031 143.238281 106.515625 142.804688 106.515625 C 141.273438 106.515625 140.882813 105.808594 141.199219 104.144531 L 141.996094 100.113281 L 140.476563 100.113281 L 140.6875 99.085938 L 142.1875 99.085938 L 142.65625 96.714844 L 144.050781 96.40625 L 143.523438 99.085938 Z M 138.265625 100.777344 C 138.265625 100.246094 137.859375 99.953125 137.257813 99.953125 C 136.070313 99.953125 135.277344 100.96875 134.933594 102.203125 C 137.242188 102.113281 138.265625 101.660156 138.265625 100.777344 Z M 139.601563 100.613281 C 139.601563 102.1875 137.964844 103.058594 134.765625 103.175781 C 134.722656 103.394531 134.691406 103.765625 134.691406 104.027344 C 134.691406 105.160156 135.097656 105.457031 136.296875 105.457031 C 137.003906 105.457031 137.753906 105.292969 138.398438 105.027344 L 138.398438 106.085938 C 137.679688 106.367188 136.808594 106.527344 135.832031 106.527344 C 134.121094 106.527344 133.324219 105.808594 133.324219 104.160156 C 133.324219 101.320313 134.933594 98.953125 137.410156 98.953125 C 138.996094 98.953125 139.601563 99.746094 139.601563 100.613281 Z M 130.746094 100.144531 C 130.449219 100.070313 130.101563 100.011719 129.683594 100.011719 C 127.460938 100.011719 126.589844 102.261719 126.589844 104.070313 C 126.589844 105.027344 126.890625 105.414063 127.355469 105.414063 C 128.765625 105.414063 130.296875 102.484375 130.640625 100.730469 Z M 132.246094 99.1875 L 130.71875 107.074219 C 130.371094 108.824219 129.230469 110.148438 126.378906 110.148438 C 125.554688 110.148438 124.921875 110.046875 124.367188 109.871094 L 124.683594 108.589844 C 125.253906 108.855469 125.988281 109 126.679688 109 C 128.226563 109 129.140625 108.414063 129.472656 106.75 C 129.683594 105.632813 129.863281 105.058594 130.371094 103.484375 C 129.832031 104.542969 128.707031 106.542969 126.890625 106.542969 C 125.808594 106.542969 125.222656 105.867188 125.222656 104.320313 C 125.222656 101.628906 126.664063 98.96875 129.90625 98.96875 C 130.761719 98.96875 131.558594 99.054688 132.246094 99.1875 Z M 122.855469 101.730469 C 122.855469 100.65625 122.363281 100.070313 121.28125 100.070313 C 119.644531 100.070313 118.550781 101.863281 118.550781 103.707031 C 118.550781 104.792969 118.996094 105.394531 120.125 105.394531 C 121.582031 105.394531 122.855469 103.867188 122.855469 101.730469 Z M 124.269531 101.585938 C 124.269531 104.601563 122.152344 106.527344 119.898438 106.527344 C 118.023438 106.527344 117.167969 105.601563 117.167969 103.925781 C 117.167969 101.011719 119.058594 98.953125 121.492188 98.953125 C 123.457031 98.953125 124.269531 100.039063 124.269531 101.585938 Z M 116.785156 99.085938 L 116.574219 100.113281 L 114.546875 100.113281 L 113.8125 103.9375 C 113.601563 105.074219 113.753906 105.382813 114.488281 105.382813 C 114.910156 105.382813 115.222656 105.335938 115.523438 105.265625 L 115.433594 106.367188 C 114.996094 106.457031 114.472656 106.515625 114.039063 106.515625 C 112.507813 106.515625 112.117188 105.808594 112.429688 104.144531 L 113.226563 100.113281 L 111.710938 100.113281 L 111.921875 99.085938 L 113.421875 99.085938 L 113.886719 96.714844 L 115.285156 96.40625 L 114.757813 99.085938 Z M 106.300781 104.734375 C 107.441406 104.734375 107.921875 106.648438 105.054688 108.648438 L 104.5625 108.089844 C 105.703125 107.132813 105.882813 106.484375 105.582031 105.972656 C 105.265625 105.457031 105.625 104.734375 106.300781 104.734375 Z M 106.425781 99.1875 L 102.734375 106.398438 L 101.21875 106.398438 L 100.632813 102.25 C 100.574219 101.792969 100.527344 101.292969 100.511719 100.777344 L 97.675781 106.398438 L 96.21875 106.398438 L 95.394531 99.085938 L 96.804688 99.085938 L 97.164063 102.984375 C 97.226563 103.660156 97.285156 104.320313 97.285156 104.808594 L 100.152344 99.085938 L 101.546875 99.085938 L 102.089844 102.96875 C 102.164063 103.5 102.238281 104.351563 102.253906 104.824219 L 105.179688 98.789063 Z M 92.515625 101.730469 C 92.515625 100.65625 92.019531 100.070313 90.941406 100.070313 C 89.304688 100.070313 88.210938 101.863281 88.210938 103.707031 C 88.210938 104.792969 88.660156 105.394531 89.785156 105.394531 C 91.242188 105.394531 92.515625 103.867188 92.515625 101.730469 Z M 93.929688 101.585938 C 93.929688 104.601563 91.8125 106.527344 89.558594 106.527344 C 87.683594 106.527344 86.828125 105.601563 86.828125 103.925781 C 86.828125 101.011719 88.71875 98.953125 91.152344 98.953125 C 93.117188 98.953125 93.929688 100.039063 93.929688 101.585938 Z M 86.9375 98.953125 L 86.667969 100.230469 C 85.289063 99.847656 83.816406 102.71875 83.425781 104.75 L 83.109375 106.398438 L 81.789063 106.398438 L 83.203125 99.085938 L 84.492188 99.085938 C 84.371094 99.71875 84.160156 100.496094 83.726563 101.777344 C 84.597656 100.011719 85.5 98.71875 86.9375 98.953125 Z M 81.707031 98.953125 L 81.4375 100.230469 C 80.054688 99.847656 78.585938 102.71875 78.195313 104.75 L 77.878906 106.398438 L 76.558594 106.398438 L 77.96875 99.085938 L 79.261719 99.085938 C 79.140625 99.71875 78.929688 100.496094 78.496094 101.777344 C 79.363281 100.011719 80.265625 98.71875 81.707031 98.953125 Z M 74.144531 101.730469 C 74.144531 100.65625 73.652344 100.070313 72.570313 100.070313 C 70.933594 100.070313 69.839844 101.863281 69.839844 103.707031 C 69.839844 104.792969 70.289063 105.394531 71.414063 105.394531 C 72.871094 105.394531 74.144531 103.867188 74.144531 101.730469 Z M 75.554688 101.585938 C 75.554688 104.601563 73.441406 106.527344 71.1875 106.527344 C 69.3125 106.527344 68.457031 105.601563 68.457031 103.925781 C 68.457031 101.011719 70.347656 98.953125 72.78125 98.953125 C 74.746094 98.953125 75.554688 100.039063 75.554688 101.585938 Z M 66.949219 101.425781 L 65.988281 106.398438 L 64.652344 106.398438 L 65.566406 101.71875 C 65.792969 100.570313 65.582031 100.054688 64.964844 100.054688 C 63.691406 100.054688 62.128906 102.761719 61.738281 104.75 L 61.421875 106.398438 L 60.101563 106.398438 L 61.019531 101.71875 C 61.242188 100.570313 61.046875 100.054688 60.402344 100.054688 C 59.140625 100.054688 57.582031 102.761719 57.191406 104.75 L 56.875 106.398438 L 55.554688 106.398438 L 56.304688 102.570313 C 56.515625 101.480469 56.769531 100.15625 56.964844 99.085938 L 58.273438 99.085938 C 58.179688 99.570313 57.972656 100.425781 57.445313 101.96875 C 58.167969 100.4375 59.335938 98.9375 60.867188 98.9375 C 61.828125 98.9375 62.367188 99.453125 62.367188 100.363281 C 62.367188 100.820313 62.25 101.246094 62.007813 101.980469 C 62.730469 100.425781 63.898438 98.9375 65.429688 98.9375 C 66.78125 98.9375 67.246094 99.894531 66.949219 101.425781 Z M 53.144531 101.730469 C 53.144531 100.65625 52.648438 100.070313 51.566406 100.070313 C 49.929688 100.070313 48.835938 101.863281 48.835938 103.707031 C 48.835938 104.792969 49.285156 105.394531 50.410156 105.394531 C 51.867188 105.394531 53.144531 103.867188 53.144531 101.730469 Z M 54.554688 101.585938 C 54.554688 104.601563 52.4375 106.527344 50.183594 106.527344 C 48.308594 106.527344 47.453125 105.601563 47.453125 103.925781 C 47.453125 101.011719 49.34375 98.953125 51.777344 98.953125 C 53.742188 98.953125 54.554688 100.039063 54.554688 101.585938 Z M 47.070313 99.085938 L 46.859375 100.113281 L 44.835938 100.113281 L 44.097656 103.9375 C 43.886719 105.074219 44.039063 105.382813 44.773438 105.382813 C 45.195313 105.382813 45.507813 105.335938 45.808594 105.265625 L 45.71875 106.367188 C 45.285156 106.457031 44.757813 106.515625 44.324219 106.515625 C 42.792969 106.515625 42.402344 105.808594 42.71875 104.144531 L 43.511719 100.113281 L 41.996094 100.113281 L 42.207031 99.085938 L 43.707031 99.085938 L 44.171875 96.714844 L 45.570313 96.40625 L 45.042969 99.085938 Z M 36.589844 104.734375 C 37.726563 104.734375 38.210938 106.648438 35.34375 108.648438 L 34.847656 108.089844 C 35.988281 107.132813 36.167969 106.484375 35.867188 105.972656 C 35.550781 105.457031 35.914063 104.734375 36.589844 104.734375 Z M 36.742188 99.15625 C 34.777344 103.675781 32.886719 106.972656 31.039063 108.808594 C 30.15625 109.691406 29.222656 110.136719 28.339844 110.136719 C 27.964844 110.136719 27.585938 110.105469 27.285156 110.03125 L 27.511719 108.839844 C 27.8125 108.941406 28.128906 108.988281 28.457031 108.988281 C 28.984375 108.988281 29.597656 108.679688 30.109375 108.148438 C 30.695313 107.53125 30.949219 106.867188 30.949219 105.808594 C 30.949219 103.867188 30.53125 101.453125 29.855469 99.085938 L 31.355469 99.085938 C 31.851563 100.980469 32.195313 103.265625 32.195313 104.824219 C 32.195313 105.085938 32.152344 105.441406 32.089844 105.734375 C 33.289063 103.6875 34.3125 101.601563 35.480469 98.789063 Z M 27.125 100.144531 C 26.828125 100.070313 26.480469 100.011719 26.058594 100.011719 C 23.839844 100.011719 22.96875 102.261719 22.96875 104.070313 C 22.96875 105.027344 23.269531 105.414063 23.734375 105.414063 C 25.144531 105.414063 26.675781 102.484375 27.019531 100.730469 Z M 28.628906 99.1875 C 27.832031 103.277344 27.5625 104.644531 27.246094 106.398438 L 25.910156 106.398438 C 26.046875 105.765625 26.332031 104.792969 26.78125 103.425781 C 26.210938 104.542969 25.085938 106.542969 23.269531 106.542969 C 22.1875 106.542969 21.601563 105.867188 21.601563 104.320313 C 21.601563 101.628906 23.027344 98.96875 26.285156 98.96875 C 27.140625 98.96875 27.9375 99.054688 28.628906 99.1875 Z M 19.054688 100.144531 C 18.753906 100.070313 18.410156 100.011719 17.988281 100.011719 C 15.769531 100.011719 14.898438 102.261719 14.898438 104.070313 C 14.898438 105.027344 15.199219 105.414063 15.664063 105.414063 C 17.074219 105.414063 18.605469 102.484375 18.949219 100.730469 Z M 21.246094 95.65625 L 19.671875 103.765625 C 19.476563 104.777344 19.28125 105.792969 19.175781 106.398438 L 17.855469 106.398438 C 17.972656 105.765625 18.261719 104.792969 18.710938 103.425781 C 18.140625 104.542969 17.015625 106.542969 15.199219 106.542969 C 14.117188 106.542969 13.53125 105.867188 13.53125 104.320313 C 13.53125 101.628906 14.957031 98.96875 18.214844 98.96875 C 18.589844 98.96875 18.890625 98.996094 19.265625 99.054688 L 19.910156 95.65625 Z M 11.164063 101.730469 C 11.164063 100.65625 10.667969 100.070313 9.589844 100.070313 C 7.953125 100.070313 6.855469 101.863281 6.855469 103.707031 C 6.855469 104.792969 7.308594 105.394531 8.433594 105.394531 C 9.886719 105.394531 11.164063 103.867188 11.164063 101.730469 Z M 12.574219 101.585938 C 12.574219 104.601563 10.460938 106.527344 8.207031 106.527344 C 6.332031 106.527344 5.476563 105.601563 5.476563 103.925781 C 5.476563 101.011719 7.367188 98.953125 9.800781 98.953125 C 11.765625 98.953125 12.574219 100.039063 12.574219 101.585938 Z M 7.28125 96.464844 L 7.070313 97.597656 L 4.21875 97.597656 L 2.492188 106.398438 L 1.15625 106.398438 L 2.867188 97.597656 L 0 97.597656 L 0.210938 96.464844 Z M 167.324219 105.601563 C 167.324219 106.117188 166.902344 106.527344 166.394531 106.527344 C 165.882813 106.527344 165.476563 106.117188 165.476563 105.632813 C 165.476563 105.117188 165.914063 104.707031 166.421875 104.707031 C 166.933594 104.707031 167.324219 105.117188 167.324219 105.601563 "/>
</g>
<path style=" stroke:none;fill-rule:nonzero;fill:rgb(88.198853%,12.199402%,14.898682%);fill-opacity:1;" d="M 99.253906 70.722656 L 108.417969 70.722656 C 106.234375 66.566406 103.773438 61.671875 103.773438 61.671875 C 103.773438 61.671875 100.1875 68.902344 99.253906 70.722656 Z M 113.621094 80.898438 L 110.082031 73.980469 L 97.609375 73.980469 L 94.136719 80.898438 L 90.085938 80.898438 L 106.164063 50.328125 L 122.640625 80.898438 Z M 46.566406 51.453125 C 50.101563 51.453125 58.519531 52.664063 58.519531 58.421875 C 58.519531 63.96875 51.085938 65.308594 51.085938 65.308594 C 51.085938 65.308594 61.6875 65.742188 61.6875 72.667969 C 61.6875 76.136719 58.671875 80.898438 47.917969 80.898438 L 36.550781 80.898438 L 36.550781 51.453125 Z M 43.847656 54.007813 L 43.847656 78.257813 C 43.847656 78.257813 44.417969 78.34375 44.9375 78.34375 C 50.289063 78.34375 53.164063 76.21875 53.164063 72.324219 C 53.164063 67.382813 49.144531 66.117188 46.410156 65.308594 C 49.144531 64.710938 51.296875 62.582031 51.296875 59.03125 C 51.296875 56.5625 49.21875 53.921875 45.113281 53.921875 C 44.382813 53.921875 43.847656 54.007813 43.847656 54.007813 Z M 80.222656 62.359375 C 84.847656 64.089844 90.148438 65.605469 90.148438 71.886719 C 90.148438 77.296875 84.589844 81.195313 77.3125 81.195313 C 72.535156 81.195313 68.84375 80.070313 67.027344 79.464844 L 66.816406 71.28125 C 67.648438 74.351563 70.921875 78.597656 76.328125 78.597656 C 80.953125 78.597656 82.664063 76.085938 82.664063 73.964844 C 82.664063 69.894531 77.261719 69.546875 72.898438 67.339844 C 68.375 65.085938 66.765625 62.617188 66.765625 59.457031 C 66.765625 52.960938 74.144531 50.753906 78.664063 50.753906 C 80.328125 50.753906 84.015625 51.054688 87.03125 52.269531 L 87.292969 59.457031 C 86.304688 56.945313 83.289063 53.480469 78.25 53.480469 C 74.820313 53.480469 73.105469 55.386719 73.105469 57.25 C 73.105469 59.890625 75.546875 60.714844 80.222656 62.359375 Z M 9.394531 70.722656 L 18.558594 70.722656 C 16.378906 66.566406 13.914063 61.671875 13.914063 61.671875 C 13.914063 61.671875 10.332031 68.902344 9.394531 70.722656 Z M 23.765625 80.898438 L 20.222656 73.980469 L 7.75 73.980469 L 4.277344 80.898438 L 0.226563 80.898438 L 16.304688 50.328125 L 32.78125 80.898438 Z M 54.71875 37.457031 C 50.667969 37.457031 47.085938 35.429688 44.421875 30.816406 L 32.34375 9.910156 L 36.546875 -0.00390625 L 47.046875 18.167969 C 59.242188 20.097656 68.039063 24.960938 67.632813 30.535156 C 67.402344 33.707031 62.832031 37.457031 54.71875 37.457031 Z M 48.234375 20.226563 L 52.238281 27.15625 C 54.796875 31.582031 56.34375 33.777344 58.523438 34.109375 C 61.644531 34.011719 64.097656 32.195313 64.257813 30.320313 C 64.640625 25.835938 57.816406 21.949219 48.234375 20.226563 Z M 19.871094 32.089844 C 19.871094 29.25 22.171875 26.953125 25.007813 26.953125 C 27.847656 26.953125 30.148438 29.25 30.148438 32.089844 C 30.148438 34.925781 27.847656 37.226563 25.007813 37.226563 C 22.171875 37.226563 19.871094 34.925781 19.871094 32.089844 Z M 27.867188 20.355469 C 19.371094 21.304688 10.578125 26.070313 10.578125 30.894531 C 10.578125 36.539063 18.804688 42.007813 36.789063 43.828125 C 18.917969 45.109375 3.636719 37.898438 3.636719 30.578125 C 3.636719 24.386719 13.964844 18.878906 29.003906 17.714844 L 27.867188 20.355469 "/>
</g>
</svg>
