<?xml version="1.0" encoding="UTF-8"?>
<svg xmlns="http://www.w3.org/2000/svg" xmlns:xlink="http://www.w3.org/1999/xlink" width="318.96pt" height="187.49pt" viewBox="0 0 318.96 187.49" version="1.1">
<defs>
<clipPath id="clip1">
  <path d="M 164 40 L 318.960938 40 L 318.960938 120 L 164 120 Z M 164 40 "/>
</clipPath>
<clipPath id="clip2">
  <path d="M 28 161 L 318 161 L 318 187.488281 L 28 187.488281 Z M 28 161 "/>
</clipPath>
</defs>
<g id="surface1">
<g clip-path="url(#clip1)" clip-rule="nonzero">
<path style=" stroke:none;fill-rule:evenodd;fill:rgb(3.09906%,59.199524%,55.699158%);fill-opacity:1;" d="M 217.007813 119.304688 C 216.214844 119.304688 215.566406 119.089844 215.0625 118.585938 L 211.390625 114.914063 L 209.664063 113.042969 C 209.160156 112.609375 208.800781 112.105469 208.800781 112.105469 L 208.65625 112.105469 L 208.65625 119.304688 L 205.992188 119.304688 L 205.992188 107.570313 L 206.855469 107.570313 C 207.648438 107.570313 208.296875 107.859375 208.800781 108.363281 L 212.398438 112.035156 L 214.34375 113.90625 C 214.703125 114.265625 215.0625 114.769531 215.0625 114.769531 L 215.207031 114.769531 L 215.207031 107.570313 L 217.871094 107.570313 L 217.871094 119.304688 Z M 167.617188 119.304688 L 164.808594 119.304688 L 164.808594 110.59375 C 164.808594 108.9375 166.105469 107.570313 168.910156 107.570313 L 174.167969 107.570313 L 174.167969 109.730469 L 168.984375 109.730469 C 168.265625 109.730469 167.761719 110.089844 167.617188 110.59375 L 167.617188 112.25 L 173.664063 112.25 L 173.664063 114.769531 L 167.617188 114.769531 Z M 185.761719 114.050781 C 184.894531 114.121094 183.671875 114.410156 182.878906 114.769531 L 182.878906 119.304688 L 180.144531 119.304688 L 180.144531 112.898438 C 180.71875 113.042969 182.015625 113.042969 183.023438 112.539063 C 183.671875 112.25 184.753906 111.601563 185.761719 111.386719 Z M 186.550781 117.074219 C 187.703125 117.433594 189.070313 117.648438 190.082031 117.648438 C 190.871094 117.648438 191.230469 117.433594 191.230469 117.074219 C 191.230469 116.929688 191.089844 116.785156 190.871094 116.640625 C 190.726563 116.570313 190.441406 116.570313 190.222656 116.425781 C 189.71875 116.28125 189.214844 116.28125 188.855469 116.136719 C 188.421875 116.066406 187.917969 115.921875 187.558594 115.632813 C 186.910156 115.273438 186.40625 114.769531 186.40625 113.761719 C 186.40625 112.25 188.207031 111.386719 190.441406 111.386719 C 191.734375 111.386719 192.960938 111.601563 193.753906 111.746094 L 193.753906 113.617188 C 192.742188 113.402344 191.589844 113.113281 190.871094 113.113281 C 190.222656 113.113281 189.71875 113.402344 189.71875 113.761719 C 189.71875 113.90625 189.863281 114.121094 190.082031 114.121094 C 190.222656 114.265625 190.441406 114.265625 190.726563 114.410156 C 192.742188 114.769531 194.472656 115.417969 194.472656 116.929688 C 194.472656 118.730469 192.960938 119.59375 190.367188 119.59375 C 188.855469 119.59375 187.558594 119.234375 186.550781 118.945313 Z M 198.433594 113.761719 L 198.433594 115.273438 C 198.433594 117.144531 198.789063 117.433594 200.089844 117.433594 C 200.449219 117.433594 200.953125 117.289063 201.3125 117.074219 L 201.3125 119.089844 C 200.664063 119.304688 199.65625 119.59375 199.082031 119.59375 C 195.910156 119.59375 195.480469 118.082031 195.480469 115.632813 L 195.480469 109.585938 L 198.433594 108.722656 L 198.433594 111.601563 L 201.167969 111.601563 L 201.167969 113.761719 Z M 178.488281 111.242188 L 178.488281 119.304688 L 175.679688 119.304688 L 175.679688 112.105469 Z M 178.488281 107.570313 L 178.488281 109.730469 L 175.679688 109.730469 L 175.679688 107.570313 Z M 177.695313 94.105469 L 164.808594 94.105469 L 164.808594 54.289063 C 164.808594 46.65625 170.640625 40.394531 183.238281 40.394531 L 208.65625 40.394531 L 208.65625 50.472656 L 183.886719 50.472656 C 180.503906 50.472656 178.34375 51.84375 177.695313 54.289063 L 177.695313 61.851563 L 205.992188 61.851563 L 205.992188 73.082031 L 177.695313 73.082031 Z M 223.34375 111.386719 L 223.34375 113.546875 C 222.121094 113.617188 221.617188 114.480469 221.617188 115.417969 C 221.617188 116.496094 222.121094 117.363281 223.34375 117.433594 L 223.34375 119.523438 C 223.199219 119.59375 223.054688 119.59375 222.910156 119.59375 C 220.25 119.59375 218.878906 117.9375 218.878906 115.417969 C 218.878906 113.042969 220.25 111.386719 222.910156 111.386719 C 223.054688 111.386719 223.199219 111.386719 223.34375 111.386719 Z M 223.34375 42.339844 L 223.34375 94.105469 L 212.6875 94.105469 L 212.6875 40.394531 L 216.574219 40.394531 C 219.09375 40.394531 221.472656 41.042969 223.34375 42.339844 Z M 239.183594 107.570313 L 239.183594 109.730469 L 236.449219 109.730469 L 236.449219 107.570313 Z M 239.183594 111.242188 L 239.183594 119.304688 L 236.304688 119.304688 L 236.304688 112.105469 Z M 231.769531 113.761719 L 231.769531 115.273438 C 231.839844 117.144531 232.128906 117.433594 233.496094 117.433594 C 233.929688 117.433594 234.433594 117.289063 234.789063 117.074219 L 234.789063 119.089844 C 234 119.304688 233.136719 119.59375 232.34375 119.59375 C 229.320313 119.59375 228.960938 118.082031 228.960938 115.632813 L 228.960938 109.585938 L 231.769531 108.722656 L 231.769531 111.601563 L 234.648438 111.601563 L 234.648438 113.761719 Z M 223.34375 119.523438 L 223.34375 117.433594 C 223.414063 117.433594 223.488281 117.433594 223.558594 117.433594 C 224.207031 117.433594 224.710938 117.289063 224.929688 116.929688 L 225.070313 114.050781 C 224.710938 113.761719 224.207031 113.546875 223.558594 113.546875 C 223.488281 113.546875 223.414063 113.546875 223.34375 113.546875 L 223.34375 111.386719 C 224.28125 111.53125 224.855469 111.890625 225.433594 112.105469 C 225.9375 112.394531 226.726563 112.898438 227.808594 112.898438 L 227.808594 119.304688 C 227.589844 119.304688 227.449219 119.304688 227.230469 119.304688 C 226.726563 119.304688 226.082031 119.304688 225.433594 118.730469 L 225.289063 118.800781 C 224.785156 119.234375 224.0625 119.449219 223.34375 119.523438 Z M 245.160156 111.386719 L 245.160156 113.546875 C 243.71875 113.546875 243.214844 114.410156 243.214844 115.417969 C 243.214844 116.570313 243.71875 117.433594 245.160156 117.433594 L 245.160156 119.59375 C 241.847656 119.59375 240.480469 117.9375 240.480469 115.417969 C 240.480469 113.042969 241.847656 111.386719 245.160156 111.386719 Z M 245.160156 63.867188 L 245.160156 81.507813 L 237.457031 73.800781 L 228.960938 65.378906 C 226.800781 63.21875 225.214844 60.914063 225.214844 60.914063 L 224.566406 61.058594 L 224.566406 94.105469 L 223.34375 94.105469 L 223.34375 42.339844 C 223.992188 42.769531 224.640625 43.347656 225.214844 43.921875 Z M 253.726563 119.304688 L 250.777344 119.304688 L 250.777344 112.898438 C 252.214844 112.898438 252.863281 112.394531 253.871094 112.035156 C 254.734375 111.746094 255.886719 111.386719 256.464844 111.386719 C 258.910156 111.386719 259.488281 112.539063 259.488281 114.050781 L 259.488281 119.304688 L 256.753906 119.304688 L 256.753906 114.914063 C 256.753906 113.90625 256.105469 113.617188 255.382813 113.617188 C 254.953125 113.617188 254.375 113.90625 253.726563 114.121094 Z M 245.160156 119.59375 L 245.160156 117.433594 C 246.527344 117.433594 247.03125 116.570313 247.03125 115.417969 C 247.03125 114.410156 246.527344 113.546875 245.160156 113.546875 L 245.160156 111.386719 C 248.398438 111.386719 249.769531 113.042969 249.769531 115.417969 C 249.769531 117.9375 248.398438 119.59375 245.160156 119.59375 Z M 265.175781 111.386719 L 265.175781 113.546875 C 263.878906 113.617188 263.449219 114.480469 263.449219 115.417969 C 263.449219 116.496094 263.878906 117.363281 265.175781 117.433594 L 265.175781 119.523438 C 264.960938 119.59375 264.816406 119.59375 264.671875 119.59375 C 262.082031 119.59375 260.566406 117.9375 260.566406 115.417969 C 260.566406 113.042969 262.082031 111.386719 264.671875 111.386719 C 264.886719 111.386719 265.03125 111.386719 265.175781 111.386719 Z M 265.175781 40.394531 L 265.175781 94.105469 L 262.800781 94.105469 C 259.414063 94.105469 256.390625 92.808594 254.230469 90.578125 L 245.160156 81.507813 L 245.160156 63.867188 L 250.414063 69.121094 C 252.574219 71.28125 254.230469 73.585938 254.230469 73.585938 L 254.734375 73.441406 L 254.878906 40.394531 Z M 271.296875 119.304688 L 271.296875 107.714844 L 274.03125 106.847656 L 274.03125 119.304688 Z M 265.175781 94.105469 L 265.175781 40.394531 L 266.6875 40.394531 L 266.6875 94.105469 Z M 265.175781 119.523438 L 265.175781 117.433594 C 265.175781 117.433594 265.25 117.433594 265.320313 117.433594 C 265.96875 117.433594 266.328125 117.289063 266.6875 116.929688 L 266.832031 114.050781 C 266.328125 113.761719 265.96875 113.546875 265.320313 113.546875 C 265.25 113.546875 265.175781 113.546875 265.175781 113.546875 L 265.175781 111.386719 C 266.039063 111.53125 266.6875 111.890625 267.191406 112.105469 C 267.695313 112.394531 268.488281 112.898438 269.640625 112.898438 L 269.640625 119.304688 C 269.351563 119.304688 269.207031 119.304688 268.992188 119.304688 C 268.488281 119.304688 267.839844 119.304688 267.191406 118.730469 L 267.121094 118.800781 C 266.617188 119.234375 265.824219 119.449219 265.175781 119.523438 Z M 283.03125 107.570313 L 283.03125 109.875 L 281.375 109.875 L 281.375 112.105469 L 283.03125 112.105469 L 283.03125 114.265625 L 281.375 114.265625 L 281.375 117.074219 L 283.03125 117.074219 L 283.03125 119.304688 L 278.710938 119.304688 L 278.710938 107.570313 Z M 283.03125 40.394531 L 283.03125 94.105469 L 274.03125 94.105469 L 274.03125 40.394531 Z M 283.03125 119.304688 L 283.03125 117.074219 L 283.894531 117.074219 C 284.902344 117.074219 285.550781 116.570313 285.550781 115.632813 C 285.550781 114.914063 284.902344 114.265625 283.894531 114.265625 L 283.03125 114.265625 L 283.03125 112.105469 L 283.25 112.105469 C 284.039063 112.105469 284.617188 111.746094 284.617188 111.027344 C 284.617188 110.234375 284.039063 109.875 283.25 109.875 L 283.03125 109.875 L 283.03125 107.570313 L 283.390625 107.570313 C 286.054688 107.570313 287.28125 108.9375 287.28125 110.59375 C 287.28125 111.53125 286.921875 112.394531 286.128906 112.898438 L 285.910156 113.042969 L 286.273438 113.113281 C 287.640625 113.617188 288.289063 114.769531 288.289063 116.066406 C 288.289063 117.792969 286.921875 119.304688 284.039063 119.304688 Z M 294.046875 111.53125 L 294.046875 113.546875 C 293.902344 113.546875 293.761719 113.546875 293.617188 113.546875 C 292.320313 113.546875 291.742188 114.410156 291.742188 115.417969 C 291.742188 116.570313 292.320313 117.433594 293.617188 117.433594 C 293.761719 117.433594 293.902344 117.433594 294.046875 117.433594 L 294.046875 119.449219 C 293.761719 119.523438 293.398438 119.59375 293.113281 119.59375 C 290.304688 119.59375 288.9375 117.9375 288.9375 115.417969 C 288.9375 113.042969 290.304688 111.386719 293.113281 111.386719 C 293.398438 111.386719 293.761719 111.457031 294.046875 111.53125 Z M 294.046875 50.472656 L 286.414063 50.472656 L 286.414063 61.203125 L 294.046875 61.203125 L 294.046875 71.066406 L 286.414063 71.066406 L 286.414063 83.953125 L 294.046875 83.953125 L 294.046875 94.105469 L 283.03125 94.105469 L 283.03125 40.394531 L 294.046875 40.394531 Z M 301.96875 119.304688 L 299.015625 119.304688 L 299.015625 112.898438 C 300.457031 112.898438 301.03125 112.394531 302.039063 112.035156 C 302.976563 111.746094 304.054688 111.386719 304.847656 111.386719 C 307.152344 111.386719 307.726563 112.539063 307.726563 114.050781 L 307.726563 119.304688 L 304.992188 119.304688 L 304.992188 114.914063 C 304.992188 113.90625 304.34375 113.617188 303.550781 113.617188 C 303.191406 113.617188 302.542969 113.90625 301.96875 114.121094 Z M 311.761719 119.304688 L 309.023438 119.304688 L 309.023438 107.929688 L 311.761719 107.066406 L 311.761719 114.265625 C 313.054688 114.410156 313.414063 114.050781 313.703125 113.617188 C 313.921875 113.113281 313.921875 112.25 313.703125 111.746094 L 316.585938 111.746094 C 316.945313 113.113281 316.726563 114.769531 314.929688 115.632813 L 314.785156 115.777344 L 317.375 119.304688 L 314.207031 119.304688 L 312.191406 116.425781 L 311.761719 116.425781 Z M 294.046875 119.449219 L 294.046875 117.433594 C 294.480469 117.363281 294.839844 117.21875 295.128906 116.929688 L 295.128906 114.050781 C 294.839844 113.835938 294.480469 113.617188 294.046875 113.546875 L 294.046875 111.53125 C 294.695313 111.671875 295.199219 111.964844 295.632813 112.105469 C 296.136719 112.394531 296.855469 112.898438 298.007813 112.898438 L 298.007813 119.304688 C 297.792969 119.304688 297.503906 119.304688 297.433594 119.304688 C 296.785156 119.304688 296.136719 119.304688 295.488281 118.730469 L 295.34375 118.800781 C 295.054688 119.160156 294.550781 119.378906 294.046875 119.449219 Z M 301.679688 55.875 C 301.679688 52.488281 299.304688 50.472656 295.273438 50.472656 L 294.046875 50.472656 L 294.046875 40.394531 L 295.847656 40.394531 C 308.519531 40.394531 314.28125 46.65625 314.28125 54.289063 C 314.28125 58.320313 312.550781 62.066406 309.023438 64.585938 L 308.015625 65.378906 L 309.167969 65.738281 C 315.863281 68.113281 318.960938 73.296875 318.960938 79.128906 C 318.960938 87.339844 312.40625 94.105469 299.015625 94.105469 L 294.046875 94.105469 L 294.046875 83.953125 L 298.441406 83.953125 C 303.335938 83.953125 306.214844 81.363281 306.214844 77.472656 C 306.214844 73.730469 303.335938 71.066406 298.441406 71.066406 L 294.046875 71.066406 L 294.046875 61.203125 L 295.273438 61.203125 C 299.304688 61.203125 301.679688 59.1875 301.679688 55.875 "/>
</g>
<path style=" stroke:none;fill-rule:evenodd;fill:rgb(94.499207%,36.099243%,13.299561%);fill-opacity:1;" d="M 3.457031 65.523438 C 3.457031 29.234375 32.761719 0.00390625 68.976563 0.00390625 C 105.191406 0.00390625 134.496094 29.234375 134.496094 65.523438 C 134.496094 67.753906 134.351563 69.914063 134.136719 72.144531 C 126.648438 101.160156 100.367188 122.617188 68.976563 122.617188 C 37.65625 122.617188 11.304688 101.160156 3.816406 72.144531 C 3.601563 69.914063 3.457031 67.753906 3.457031 65.523438 "/>
<path style=" stroke:none;fill-rule:evenodd;fill:rgb(94.499207%,36.099243%,13.299561%);fill-opacity:1;" d="M 121.320313 97.488281 C 106.488281 107.859375 88.414063 113.90625 68.976563 113.90625 C 49.535156 113.90625 31.464844 107.859375 16.558594 97.488281 C 10.65625 90.21875 6.191406 81.648438 3.816406 72.144531 C 3.601563 69.914063 3.457031 67.753906 3.457031 65.523438 C 3.457031 29.234375 32.761719 0.00390625 68.976563 0.00390625 C 105.191406 0.00390625 134.496094 29.234375 134.496094 65.523438 C 134.496094 67.753906 134.351563 69.914063 134.136719 72.144531 C 131.6875 81.648438 127.296875 90.21875 121.320313 97.488281 "/>
<path style=" stroke:none;fill-rule:evenodd;fill:rgb(94.499207%,36.898804%,13.299561%);fill-opacity:1;" d="M 124.488281 93.3125 C 109.222656 105.339844 89.925781 112.394531 68.976563 112.394531 C 48.023438 112.394531 28.65625 105.339844 13.390625 93.3125 C 9 87.050781 5.6875 79.851563 3.816406 72.144531 C 3.601563 69.914063 3.457031 67.753906 3.457031 65.523438 C 3.457031 29.234375 32.761719 0.00390625 68.976563 0.00390625 C 105.191406 0.00390625 134.496094 29.234375 134.496094 65.523438 C 134.496094 67.753906 134.351563 69.914063 134.136719 72.144531 C 132.191406 79.851563 128.953125 87.050781 124.488281 93.3125 "/>
<path style=" stroke:none;fill-rule:evenodd;fill:rgb(94.499207%,37.599182%,13.299561%);fill-opacity:1;" d="M 127.152344 89.210938 C 111.527344 102.671875 91.152344 110.882813 68.976563 110.882813 C 46.726563 110.882813 26.421875 102.671875 10.726563 89.210938 C 7.703125 83.953125 5.328125 78.265625 3.816406 72.144531 C 3.601563 69.914063 3.457031 67.753906 3.457031 65.523438 C 3.457031 29.234375 32.761719 0.00390625 68.976563 0.00390625 C 105.191406 0.00390625 134.496094 29.234375 134.496094 65.523438 C 134.496094 67.753906 134.351563 69.914063 134.136719 72.144531 C 132.625 78.265625 130.175781 83.953125 127.152344 89.210938 "/>
<path style=" stroke:none;fill-rule:evenodd;fill:rgb(94.898987%,38.398743%,13.299561%);fill-opacity:1;" d="M 129.3125 85.179688 C 113.6875 100.152344 92.304688 109.371094 68.976563 109.371094 C 45.574219 109.371094 24.265625 100.152344 8.640625 85.179688 C 6.625 81.003906 4.96875 76.753906 3.816406 72.144531 C 3.601563 69.914063 3.457031 67.753906 3.457031 65.523438 C 3.457031 29.234375 32.761719 0.00390625 68.976563 0.00390625 C 105.191406 0.00390625 134.496094 29.234375 134.496094 65.523438 C 134.496094 67.753906 134.351563 69.914063 134.136719 72.144531 C 132.984375 76.753906 131.328125 81.003906 129.3125 85.179688 "/>
<path style=" stroke:none;fill-rule:evenodd;fill:rgb(94.898987%,40.39917%,12.89978%);fill-opacity:1;" d="M 131.183594 81.144531 C 115.558594 97.488281 93.457031 107.714844 68.976563 107.714844 C 44.496094 107.714844 22.390625 97.488281 6.695313 81.144531 C 5.617188 78.265625 4.609375 75.242188 3.816406 72.144531 C 3.601563 69.914063 3.457031 67.753906 3.457031 65.523438 C 3.457031 29.234375 32.761719 0.00390625 68.976563 0.00390625 C 105.191406 0.00390625 134.496094 29.234375 134.496094 65.523438 C 134.496094 67.753906 134.351563 69.914063 134.136719 72.144531 C 133.34375 75.242188 132.335938 78.265625 131.183594 81.144531 "/>
<path style=" stroke:none;fill-rule:evenodd;fill:rgb(94.898987%,41.598511%,12.89978%);fill-opacity:1;" d="M 132.625 77.257813 C 117.214844 94.96875 94.320313 106.203125 68.976563 106.203125 C 43.558594 106.203125 20.734375 94.96875 5.328125 77.257813 C 4.679688 75.601563 4.175781 73.945313 3.816406 72.144531 C 3.601563 69.914063 3.457031 67.753906 3.457031 65.523438 C 3.457031 29.234375 32.761719 0.00390625 68.976563 0.00390625 C 105.191406 0.00390625 134.496094 29.234375 134.496094 65.523438 C 134.496094 67.753906 134.351563 69.914063 134.136719 72.144531 C 133.703125 73.945313 133.199219 75.601563 132.625 77.257813 "/>
<path style=" stroke:none;fill-rule:evenodd;fill:rgb(95.298767%,42.399597%,12.89978%);fill-opacity:1;" d="M 133.847656 73.441406 C 118.726563 92.449219 95.257813 104.691406 68.976563 104.691406 C 42.695313 104.691406 19.222656 92.449219 4.105469 73.441406 C 3.960938 73.082031 3.960938 72.578125 3.816406 72.144531 C 3.601563 69.914063 3.457031 67.753906 3.457031 65.523438 C 3.457031 29.234375 32.761719 0.00390625 68.976563 0.00390625 C 105.191406 0.00390625 134.496094 29.234375 134.496094 65.523438 C 134.496094 67.753906 134.351563 69.914063 134.136719 72.144531 C 133.992188 72.578125 133.992188 73.082031 133.847656 73.441406 "/>
<path style=" stroke:none;fill-rule:evenodd;fill:rgb(95.298767%,44.299316%,12.89978%);fill-opacity:1;" d="M 134.351563 70.273438 C 119.449219 90.21875 95.761719 103.175781 68.976563 103.175781 C 42.191406 103.175781 18.433594 90.21875 3.601563 70.273438 C 3.457031 68.617188 3.457031 67.035156 3.457031 65.523438 C 3.457031 29.234375 32.761719 0.00390625 68.976563 0.00390625 C 105.191406 0.00390625 134.496094 29.234375 134.496094 65.523438 C 134.496094 67.035156 134.496094 68.617188 134.351563 70.273438 "/>
<path style=" stroke:none;fill-rule:evenodd;fill:rgb(95.298767%,45.098877%,12.89978%);fill-opacity:1;" d="M 134.496094 67.394531 C 120.097656 88.058594 96.121094 101.667969 68.976563 101.667969 C 41.832031 101.667969 17.855469 88.058594 3.457031 67.394531 C 3.457031 66.746094 3.457031 66.097656 3.457031 65.523438 C 3.457031 29.234375 32.761719 0.00390625 68.976563 0.00390625 C 105.191406 0.00390625 134.496094 29.234375 134.496094 65.523438 C 134.496094 66.097656 134.496094 66.746094 134.496094 67.394531 "/>
<path style=" stroke:none;fill-rule:evenodd;fill:rgb(95.698547%,45.899963%,12.89978%);fill-opacity:1;" d="M 134.496094 64.585938 C 120.601563 85.96875 96.335938 100.011719 68.976563 100.011719 C 41.542969 100.011719 17.421875 85.96875 3.457031 64.585938 C 3.960938 28.730469 33.121094 0.00390625 68.976563 0.00390625 C 104.832031 0.00390625 133.992188 28.730469 134.496094 64.585938 "/>
<path style=" stroke:none;fill-rule:evenodd;fill:rgb(95.698547%,46.699524%,12.5%);fill-opacity:1;" d="M 134.351563 61.851563 C 120.960938 83.953125 96.625 98.496094 68.976563 98.496094 C 41.328125 98.496094 16.917969 83.953125 3.601563 61.851563 C 5.472656 27.363281 33.984375 0.00390625 68.976563 0.00390625 C 103.96875 0.00390625 132.480469 27.363281 134.351563 61.851563 "/>
<path style=" stroke:none;fill-rule:evenodd;fill:rgb(95.698547%,48.199463%,12.5%);fill-opacity:1;" d="M 134.207031 59.1875 C 121.246094 81.792969 96.839844 96.984375 68.976563 96.984375 C 41.039063 96.984375 16.703125 81.792969 3.671875 59.1875 C 6.839844 25.992188 34.847656 0.00390625 68.976563 0.00390625 C 103.03125 0.00390625 131.039063 25.992188 134.207031 59.1875 "/>
<path style=" stroke:none;fill-rule:evenodd;fill:rgb(95.698547%,48.599243%,12.5%);fill-opacity:1;" d="M 133.847656 56.523438 C 121.464844 79.777344 97.128906 95.472656 68.976563 95.472656 C 40.824219 95.472656 16.414063 79.777344 4.105469 56.523438 C 8.351563 24.554688 35.785156 0.00390625 68.976563 0.00390625 C 102.167969 0.00390625 129.527344 24.554688 133.847656 56.523438 "/>
<path style=" stroke:none;fill-rule:evenodd;fill:rgb(96.099854%,50.999451%,12.199402%);fill-opacity:1;" d="M 133.488281 54.003906 C 121.753906 77.617188 97.273438 93.816406 68.976563 93.816406 C 40.679688 93.816406 16.199219 77.617188 4.464844 54.003906 C 9.863281 23.1875 36.648438 0.00390625 68.976563 0.00390625 C 101.304688 0.00390625 128.015625 23.1875 133.488281 54.003906 "/>
<path style=" stroke:none;fill-rule:evenodd;fill:rgb(96.499634%,52.198792%,12.199402%);fill-opacity:1;" d="M 132.984375 51.480469 C 121.824219 75.601563 97.34375 92.304688 68.976563 92.304688 C 40.535156 92.304688 16.054688 75.601563 4.96875 51.480469 C 11.375 21.960938 37.511719 0.00390625 68.976563 0.00390625 C 100.367188 0.00390625 126.503906 21.960938 132.984375 51.480469 "/>
<path style=" stroke:none;fill-rule:evenodd;fill:rgb(96.499634%,52.89917%,12.199402%);fill-opacity:1;" d="M 132.335938 48.960938 C 121.824219 73.585938 97.488281 90.867188 68.976563 90.867188 C 40.464844 90.867188 16.054688 73.585938 5.617188 48.960938 C 12.886719 20.808594 38.375 0.00390625 68.976563 0.00390625 C 99.503906 0.00390625 124.992188 20.808594 132.335938 48.960938 "/>
<path style=" stroke:none;fill-rule:evenodd;fill:rgb(96.499634%,54.098511%,12.199402%);fill-opacity:1;" d="M 131.6875 46.585938 C 121.824219 71.570313 97.488281 89.355469 68.976563 89.355469 C 40.464844 89.355469 16.054688 71.570313 6.191406 46.585938 C 14.328125 19.515625 39.3125 0.00390625 68.976563 0.00390625 C 98.640625 0.00390625 123.625 19.515625 131.6875 46.585938 "/>
<path style=" stroke:none;fill-rule:evenodd;fill:rgb(96.499634%,54.899597%,11.799622%);fill-opacity:1;" d="M 130.96875 44.136719 C 121.824219 69.625 97.488281 87.84375 68.976563 87.84375 C 40.464844 87.84375 16.054688 69.625 6.984375 44.136719 C 15.839844 18.433594 40.175781 0.00390625 68.976563 0.00390625 C 97.777344 0.00390625 122.113281 18.433594 130.96875 44.136719 "/>
<path style=" stroke:none;fill-rule:evenodd;fill:rgb(96.899414%,56.098938%,11.799622%);fill-opacity:1;" d="M 130.03125 41.90625 C 121.753906 67.609375 97.488281 86.1875 68.976563 86.1875 C 40.464844 86.1875 16.199219 67.609375 7.847656 41.90625 C 17.351563 17.425781 41.039063 0.00390625 68.976563 0.00390625 C 96.839844 0.00390625 120.601563 17.425781 130.03125 41.90625 "/>
<path style=" stroke:none;fill-rule:evenodd;fill:rgb(96.899414%,57.598877%,11.399841%);fill-opacity:1;" d="M 129.167969 39.601563 C 121.609375 65.59375 97.488281 84.675781 68.976563 84.675781 C 40.464844 84.675781 16.34375 65.59375 8.710938 39.601563 C 18.71875 16.273438 41.976563 0.00390625 68.976563 0.00390625 C 95.976563 0.00390625 119.230469 16.273438 129.167969 39.601563 "/>
<path style=" stroke:none;fill-rule:evenodd;fill:rgb(97.299194%,58.799744%,11.399841%);fill-opacity:1;" d="M 128.160156 37.441406 C 121.320313 63.722656 97.34375 83.160156 68.976563 83.160156 C 40.535156 83.160156 16.558594 63.722656 9.71875 37.441406 C 20.230469 15.265625 42.839844 0.00390625 68.976563 0.00390625 C 95.113281 0.00390625 117.71875 15.265625 128.160156 37.441406 "/>
<path style=" stroke:none;fill-rule:evenodd;fill:rgb(97.299194%,59.999084%,10.998535%);fill-opacity:1;" d="M 127.152344 35.28125 C 121.105469 61.851563 97.34375 81.648438 68.976563 81.648438 C 40.535156 81.648438 16.847656 61.851563 10.726563 35.28125 C 21.742188 14.257813 43.703125 0.00390625 68.976563 0.00390625 C 94.246094 0.00390625 116.207031 14.257813 127.152344 35.28125 "/>
<path style=" stroke:none;fill-rule:evenodd;fill:rgb(97.599792%,61.999512%,10.598755%);fill-opacity:1;" d="M 126 33.195313 C 120.742188 59.90625 97.273438 80.136719 68.976563 80.136719 C 40.679688 80.136719 17.207031 59.90625 11.878906 33.195313 C 23.113281 13.320313 44.496094 0.00390625 68.976563 0.00390625 C 93.457031 0.00390625 114.769531 13.320313 126 33.195313 "/>
<path style=" stroke:none;fill-rule:evenodd;fill:rgb(97.599792%,63.09967%,10.598755%);fill-opacity:1;" d="M 124.777344 31.179688 C 120.457031 58.035156 97.128906 78.480469 68.976563 78.480469 C 40.824219 78.480469 17.421875 58.035156 13.175781 31.179688 C 24.625 12.457031 45.359375 0.00390625 68.976563 0.00390625 C 92.59375 0.00390625 113.257813 12.457031 124.777344 31.179688 "/>
<path style=" stroke:none;fill-rule:evenodd;fill:rgb(97.999573%,63.499451%,10.198975%);fill-opacity:1;" d="M 123.480469 29.160156 C 119.953125 56.160156 96.839844 76.96875 68.976563 76.96875 C 41.039063 76.96875 17.925781 56.160156 14.398438 29.160156 C 26.136719 11.59375 46.222656 0.00390625 68.976563 0.00390625 C 91.65625 0.00390625 111.742188 11.59375 123.480469 29.160156 "/>
<path style=" stroke:none;fill-rule:evenodd;fill:rgb(97.999573%,64.698792%,10.198975%);fill-opacity:1;" d="M 122.257813 27.21875 C 119.59375 54.363281 96.769531 75.457031 68.976563 75.457031 C 41.183594 75.457031 18.359375 54.363281 15.695313 27.21875 C 27.574219 10.730469 47.015625 0.00390625 68.976563 0.00390625 C 90.9375 0.00390625 110.375 10.730469 122.257813 27.21875 "/>
<path style=" stroke:none;fill-rule:evenodd;fill:rgb(97.999573%,65.499878%,9.799194%);fill-opacity:1;" d="M 120.742188 25.347656 C 119.089844 52.488281 96.480469 73.800781 68.976563 73.800781 C 41.472656 73.800781 18.863281 52.488281 17.207031 25.347656 C 29.160156 9.792969 47.878906 0.00390625 68.976563 0.00390625 C 90.070313 0.00390625 108.71875 9.792969 120.742188 25.347656 "/>
<path style=" stroke:none;fill-rule:evenodd;fill:rgb(98.399353%,66.699219%,9.399414%);fill-opacity:1;" d="M 119.230469 23.472656 C 118.441406 50.617188 96.265625 72.289063 68.976563 72.289063 C 41.6875 72.289063 19.441406 50.617188 18.71875 23.472656 C 30.742188 9.074219 48.742188 0.00390625 68.976563 0.00390625 C 89.136719 0.00390625 107.207031 9.074219 119.230469 23.472656 "/>
<path style=" stroke:none;fill-rule:evenodd;fill:rgb(98.399353%,67.799377%,10.598755%);fill-opacity:1;" d="M 20.230469 21.960938 L 20.230469 21.675781 C 32.257813 8.28125 49.679688 0.00390625 68.976563 0.00390625 C 88.273438 0.00390625 105.695313 8.28125 117.71875 21.675781 L 117.71875 21.960938 C 117.71875 48.816406 95.832031 70.632813 68.976563 70.632813 C 42.046875 70.632813 20.230469 48.816406 20.230469 21.960938 "/>
<path style=" stroke:none;fill-rule:evenodd;fill:rgb(98.799133%,68.598938%,10.998535%);fill-opacity:1;" d="M 21.886719 21.960938 C 21.886719 21.3125 21.886719 20.523438 21.886719 19.945313 C 33.769531 7.5625 50.542969 0.00390625 68.976563 0.00390625 C 87.40625 0.00390625 104.183594 7.5625 116.0625 19.945313 C 116.0625 20.523438 116.0625 21.3125 116.0625 21.960938 C 116.0625 47.953125 94.96875 69.121094 68.976563 69.121094 C 42.984375 69.121094 21.886719 47.953125 21.886719 21.960938 "/>
<path style=" stroke:none;fill-rule:evenodd;fill:rgb(98.799133%,70.199585%,11.399841%);fill-opacity:1;" d="M 23.398438 21.960938 C 23.398438 20.664063 23.542969 19.441406 23.542969 18.144531 C 35.351563 6.914063 51.265625 0.00390625 68.976563 0.00390625 C 86.617188 0.00390625 102.527344 6.914063 114.40625 18.144531 C 114.40625 19.441406 114.550781 20.664063 114.550781 21.960938 C 114.550781 47.160156 94.105469 67.539063 68.976563 67.539063 C 43.847656 67.539063 23.398438 47.160156 23.398438 21.960938 "/>
<path style=" stroke:none;fill-rule:evenodd;fill:rgb(98.799133%,70.599365%,12.89978%);fill-opacity:1;" d="M 25.054688 21.960938 C 25.054688 20.160156 25.128906 18.433594 25.273438 16.632813 C 36.863281 6.265625 52.199219 0.00390625 68.976563 0.00390625 C 85.753906 0.00390625 101.015625 6.265625 112.679688 16.632813 C 112.753906 18.433594 112.894531 20.160156 112.894531 21.960938 C 112.894531 46.296875 93.167969 65.882813 68.976563 65.882813 C 44.710938 65.882813 25.054688 46.296875 25.054688 21.960938 "/>
<path style=" stroke:none;fill-rule:evenodd;fill:rgb(99.198914%,71.798706%,14.898682%);fill-opacity:1;" d="M 26.566406 21.960938 C 26.566406 19.515625 26.785156 17.28125 27.144531 14.976563 C 38.519531 5.546875 53.0625 0.00390625 68.976563 0.00390625 C 84.886719 0.00390625 99.359375 5.546875 110.734375 14.976563 C 111.097656 17.28125 111.382813 19.515625 111.382813 21.960938 C 111.382813 45.433594 92.304688 64.371094 68.976563 64.371094 C 45.574219 64.371094 26.566406 45.433594 26.566406 21.960938 "/>
<path style=" stroke:none;fill-rule:evenodd;fill:rgb(99.198914%,72.499084%,17.999268%);fill-opacity:1;" d="M 28.152344 21.960938 C 28.152344 19.011719 28.441406 16.273438 29.089844 13.464844 C 40.03125 5.042969 53.925781 0.00390625 68.976563 0.00390625 C 83.953125 0.00390625 97.847656 5.042969 108.863281 13.464844 C 109.511719 16.273438 109.726563 19.011719 109.726563 21.960938 C 109.726563 44.496094 91.441406 62.714844 68.976563 62.714844 C 46.511719 62.714844 28.152344 44.496094 28.152344 21.960938 "/>
<path style=" stroke:none;fill-rule:evenodd;fill:rgb(99.198914%,74.099731%,19.599915%);fill-opacity:1;" d="M 29.808594 21.960938 C 29.808594 18.507813 30.238281 15.265625 31.105469 11.953125 C 41.6875 4.394531 54.792969 0.00390625 68.976563 0.00390625 C 83.089844 0.00390625 96.265625 4.394531 106.847656 11.953125 C 107.710938 15.265625 108.070313 18.507813 108.070313 21.960938 C 108.070313 43.632813 90.574219 61.203125 68.976563 61.203125 C 47.375 61.203125 29.808594 43.632813 29.808594 21.960938 "/>
<path style=" stroke:none;fill-rule:evenodd;fill:rgb(99.198914%,74.899292%,22.399902%);fill-opacity:1;" d="M 31.320313 21.960938 C 31.320313 18.003906 31.96875 14.257813 33.121094 10.585938 C 43.488281 3.890625 55.726563 0.00390625 68.976563 0.00390625 C 82.222656 0.00390625 94.464844 3.890625 104.832031 10.585938 C 105.984375 14.257813 106.558594 18.003906 106.558594 21.960938 C 106.558594 42.769531 89.785156 59.546875 68.976563 59.546875 C 48.238281 59.546875 31.320313 42.769531 31.320313 21.960938 "/>
<path style=" stroke:none;fill-rule:evenodd;fill:rgb(99.598694%,76.098633%,24.299622%);fill-opacity:1;" d="M 32.976563 21.960938 C 32.976563 17.496094 33.769531 13.25 35.28125 9.289063 C 45.070313 3.386719 56.59375 0.00390625 68.976563 0.00390625 C 81.359375 0.00390625 92.808594 3.386719 102.671875 9.289063 C 104.183594 13.25 104.976563 17.496094 104.976563 21.960938 C 104.976563 41.90625 88.917969 57.890625 68.976563 57.890625 C 49.03125 57.890625 32.976563 41.90625 32.976563 21.960938 "/>
<path style=" stroke:none;fill-rule:evenodd;fill:rgb(99.598694%,76.098633%,27.49939%);fill-opacity:1;" d="M 34.488281 21.960938 C 34.488281 16.992188 35.640625 12.242188 37.511719 7.921875 C 46.871094 2.882813 57.601563 0.00390625 68.976563 0.00390625 C 80.351563 0.00390625 91.082031 2.882813 100.367188 7.921875 C 102.3125 12.242188 103.464844 16.992188 103.464844 21.960938 C 103.464844 40.96875 88.054688 56.378906 68.976563 56.378906 C 49.894531 56.378906 34.488281 40.96875 34.488281 21.960938 "/>
<path style=" stroke:none;fill-rule:evenodd;fill:rgb(100%,77.999878%,30.599976%);fill-opacity:1;" d="M 36.144531 21.960938 C 36.144531 16.488281 37.511719 11.304688 39.960938 6.625 C 48.671875 2.378906 58.464844 0.00390625 68.976563 0.00390625 C 79.414063 0.00390625 89.28125 2.378906 97.992188 6.625 C 100.367188 11.304688 101.808594 16.488281 101.808594 21.960938 C 101.808594 40.105469 87.121094 54.792969 68.976563 54.792969 C 50.761719 54.792969 36.144531 40.105469 36.144531 21.960938 "/>
<path style=" stroke:none;fill-rule:evenodd;fill:rgb(100%,77.999878%,32.499695%);fill-opacity:1;" d="M 37.800781 21.960938 C 37.800781 15.984375 39.457031 10.296875 42.335938 5.546875 C 50.542969 2.019531 59.472656 0.00390625 68.976563 0.00390625 C 78.40625 0.00390625 87.40625 2.019531 95.617188 5.546875 C 98.496094 10.296875 100.152344 15.984375 100.152344 21.960938 C 100.152344 39.242188 86.257813 53.210938 68.976563 53.210938 C 51.695313 53.210938 37.800781 39.242188 37.800781 21.960938 "/>
<path style=" stroke:none;fill-rule:evenodd;fill:rgb(99.598694%,79.998779%,35.299683%);fill-opacity:1;" d="M 39.3125 21.960938 C 39.3125 15.339844 41.472656 9.289063 45.070313 4.394531 C 52.414063 1.515625 60.480469 0.00390625 68.976563 0.00390625 C 77.398438 0.00390625 85.535156 1.515625 92.808594 4.394531 C 96.480469 9.289063 98.640625 15.339844 98.640625 21.960938 C 98.640625 38.378906 85.390625 51.625 68.976563 51.625 C 52.558594 51.625 39.3125 38.378906 39.3125 21.960938 "/>
<path style=" stroke:none;fill-rule:evenodd;fill:rgb(99.598694%,79.998779%,37.298584%);fill-opacity:1;" d="M 40.96875 21.960938 C 40.96875 14.835938 43.558594 8.28125 47.878906 3.386719 C 54.574219 1.082031 61.632813 0.00390625 68.976563 0.00390625 C 76.320313 0.00390625 83.375 1.082031 90.070313 3.386719 C 94.320313 8.28125 96.984375 14.835938 96.984375 21.960938 C 96.984375 37.441406 84.457031 49.96875 68.976563 49.96875 C 53.421875 49.96875 40.96875 37.441406 40.96875 21.960938 "/>
<path style=" stroke:none;fill-rule:evenodd;fill:rgb(99.598694%,81.999207%,40.39917%);fill-opacity:1;" d="M 42.480469 21.960938 C 42.480469 14.257813 45.863281 7.128906 51.191406 2.378906 C 56.808594 0.722656 62.785156 0.00390625 68.976563 0.00390625 C 75.167969 0.00390625 81.070313 0.722656 86.761719 2.378906 C 92.089844 7.128906 95.472656 14.257813 95.472656 21.960938 C 95.472656 36.578125 83.59375 48.457031 68.976563 48.457031 C 54.289063 48.457031 42.480469 36.578125 42.480469 21.960938 "/>
<path style=" stroke:none;fill-rule:evenodd;fill:rgb(99.598694%,81.999207%,42.399597%);fill-opacity:1;" d="M 44.0625 21.960938 C 44.0625 13.464844 48.382813 5.90625 54.792969 1.515625 C 59.398438 0.507813 64.152344 0.00390625 68.976563 0.00390625 C 73.726563 0.00390625 78.550781 0.507813 83.089844 1.515625 C 89.566406 5.90625 93.816406 13.464844 93.816406 21.960938 C 93.816406 35.714844 82.726563 46.800781 68.976563 46.800781 C 55.222656 46.800781 44.0625 35.714844 44.0625 21.960938 "/>
<path style=" stroke:none;fill-rule:evenodd;fill:rgb(99.198914%,83.898926%,45.098877%);fill-opacity:1;" d="M 45.71875 21.960938 C 45.71875 12.3125 51.40625 4.105469 59.761719 0.578125 C 62.785156 0.0742188 65.808594 0.00390625 68.976563 0.00390625 C 72.144531 0.00390625 75.167969 0.0742188 78.191406 0.578125 C 86.542969 4.105469 92.304688 12.3125 92.304688 21.960938 C 92.304688 34.777344 81.863281 45.289063 68.976563 45.289063 C 56.089844 45.289063 45.71875 34.777344 45.71875 21.960938 "/>
<path style=" stroke:none;fill-rule:evenodd;fill:rgb(99.198914%,83.898926%,47.499084%);fill-opacity:1;" d="M 47.230469 21.960938 C 47.230469 9.9375 56.953125 0.21875 68.976563 0.21875 C 80.925781 0.21875 90.648438 9.9375 90.648438 21.960938 C 90.648438 33.914063 80.925781 43.632813 68.976563 43.632813 C 56.953125 43.632813 47.230469 33.914063 47.230469 21.960938 "/>
<path style=" stroke:none;fill-rule:evenodd;fill:rgb(99.198914%,85.099792%,49.398804%);fill-opacity:1;" d="M 48.886719 21.960938 C 48.886719 10.800781 57.886719 1.875 68.976563 1.875 C 80.0625 1.875 89.0625 10.800781 89.0625 21.960938 C 89.0625 33.050781 80.0625 42.121094 68.976563 42.121094 C 57.886719 42.121094 48.886719 33.050781 48.886719 21.960938 "/>
<path style=" stroke:none;fill-rule:evenodd;fill:rgb(99.198914%,86.299133%,52.89917%);fill-opacity:1;" d="M 50.398438 21.960938 C 50.398438 11.738281 58.753906 3.386719 68.976563 3.386719 C 79.199219 3.386719 87.550781 11.738281 87.550781 21.960938 C 87.550781 32.1875 79.199219 40.464844 68.976563 40.464844 C 58.753906 40.464844 50.398438 32.1875 50.398438 21.960938 "/>
<path style=" stroke:none;fill-rule:evenodd;fill:rgb(99.198914%,87.098694%,55.299377%);fill-opacity:1;" d="M 52.054688 21.960938 C 52.054688 12.601563 59.617188 5.042969 68.976563 5.042969 C 78.335938 5.042969 85.894531 12.601563 85.894531 21.960938 C 85.894531 31.25 78.335938 38.882813 68.976563 38.882813 C 59.617188 38.882813 52.054688 31.25 52.054688 21.960938 "/>
<path style=" stroke:none;fill-rule:evenodd;fill:rgb(99.198914%,88.198853%,57.998657%);fill-opacity:1;" d="M 53.566406 21.960938 C 53.566406 13.464844 60.480469 6.625 68.976563 6.625 C 77.398438 6.625 84.382813 13.464844 84.382813 21.960938 C 84.382813 30.386719 77.398438 37.371094 68.976563 37.371094 C 60.480469 37.371094 53.566406 30.386719 53.566406 21.960938 "/>
<path style=" stroke:none;fill-rule:evenodd;fill:rgb(99.198914%,88.999939%,61.199951%);fill-opacity:1;" d="M 55.222656 21.960938 C 55.222656 14.328125 61.414063 8.210938 68.976563 8.210938 C 76.535156 8.210938 82.726563 14.328125 82.726563 21.960938 C 82.726563 29.523438 76.535156 35.714844 68.976563 35.714844 C 61.414063 35.714844 55.222656 29.523438 55.222656 21.960938 "/>
<path style=" stroke:none;fill-rule:evenodd;fill:rgb(98.799133%,90.19928%,63.499451%);fill-opacity:1;" d="M 56.808594 21.960938 C 56.808594 15.265625 62.28125 9.792969 68.976563 9.792969 C 75.671875 9.792969 81.070313 15.265625 81.070313 21.960938 C 81.070313 28.65625 75.671875 34.203125 68.976563 34.203125 C 62.28125 34.203125 56.808594 28.65625 56.808594 21.960938 "/>
<path style=" stroke:none;fill-rule:evenodd;fill:rgb(98.799133%,90.99884%,66.699219%);fill-opacity:1;" d="M 58.390625 21.960938 C 58.390625 16.128906 63.144531 11.304688 68.976563 11.304688 C 74.734375 11.304688 79.558594 16.128906 79.558594 21.960938 C 79.558594 27.722656 74.734375 32.546875 68.976563 32.546875 C 63.144531 32.546875 58.390625 27.722656 58.390625 21.960938 "/>
<path style=" stroke:none;fill-rule:evenodd;fill:rgb(98.799133%,92.199707%,68.598938%);fill-opacity:1;" d="M 59.976563 21.960938 C 59.976563 16.992188 64.007813 12.960938 68.976563 12.960938 C 73.871094 12.960938 77.902344 16.992188 77.902344 21.960938 C 77.902344 26.859375 73.871094 30.890625 68.976563 30.890625 C 64.007813 30.890625 59.976563 26.859375 59.976563 21.960938 "/>
<path style=" stroke:none;fill-rule:evenodd;fill:rgb(99.198914%,92.89856%,72.198486%);fill-opacity:1;" d="M 61.488281 21.960938 C 61.488281 17.929688 64.945313 14.617188 68.976563 14.617188 C 73.007813 14.617188 76.390625 17.929688 76.390625 21.960938 C 76.390625 26.066406 73.007813 29.378906 68.976563 29.378906 C 64.945313 29.378906 61.488281 26.066406 61.488281 21.960938 "/>
<path style=" stroke:none;fill-rule:evenodd;fill:rgb(99.598694%,94.499207%,74.899292%);fill-opacity:1;" d="M 63.144531 21.960938 C 63.144531 18.792969 65.808594 16.128906 68.976563 16.128906 C 72.144531 16.128906 74.734375 18.792969 74.734375 21.960938 C 74.734375 25.203125 72.144531 27.722656 68.976563 27.722656 C 65.808594 27.722656 63.144531 25.203125 63.144531 21.960938 "/>
<path style=" stroke:none;fill-rule:evenodd;fill:rgb(99.598694%,95.298767%,78.399658%);fill-opacity:1;" d="M 64.800781 21.960938 C 64.800781 19.65625 66.671875 17.785156 68.976563 17.785156 C 71.207031 17.785156 73.152344 19.65625 73.152344 21.960938 C 73.152344 24.339844 71.207031 26.210938 68.976563 26.210938 C 66.671875 26.210938 64.800781 24.339844 64.800781 21.960938 "/>
<path style=" stroke:none;fill-rule:evenodd;fill:rgb(0.799561%,0.799561%,0.799561%);fill-opacity:1;" d="M 52.199219 14.472656 C 44.351563 16.058594 36.9375 18.648438 29.953125 22.179688 L 31.96875 24.195313 C 22.535156 27.21875 13.679688 31.898438 5.832031 37.585938 C 5.183594 38.882813 4.679688 40.25 4.175781 41.472656 C 14.183594 38.234375 24.910156 36.433594 36 36.722656 C 39.023438 36.722656 42.046875 36.9375 45 37.226563 L 49.246094 41.402344 C 50.257813 41.113281 51.265625 40.824219 52.199219 40.539063 Z M 52.199219 77.257813 C 48.527344 76.539063 44.785156 76.179688 40.96875 76.105469 L 52.199219 87.410156 L 52.199219 92.738281 L 35.640625 76.25 L 34.992188 76.25 C 30.09375 76.464844 25.273438 77.257813 20.734375 78.339844 C 20.230469 77.257813 19.726563 76.25 19.222656 75.097656 C 22.609375 73.296875 26.136719 71.785156 29.953125 70.5625 L 26.136719 66.746094 C 25.054688 66.53125 23.761719 66.386719 22.609375 66.242188 C 21.238281 66.027344 19.945313 65.882813 18.574219 65.738281 C 15.910156 65.523438 13.175781 65.523438 10.367188 65.523438 C 6.839844 65.523438 3.457031 65.59375 0 66.027344 L 0 65.378906 C 0 64.585938 0 64.011719 0 63.21875 C 9.503906 59.1875 19.871094 56.664063 30.742188 55.875 L 42.191406 67.394531 C 44.0625 67.105469 46.007813 66.890625 47.878906 66.746094 L 33.984375 52.707031 C 30.09375 52.347656 26.136719 52.128906 22.246094 52.128906 C 14.832031 52.128906 7.703125 52.851563 0.792969 54.507813 C 1.007813 53.136719 1.296875 51.84375 1.511719 50.617188 C 12.886719 44.785156 25.558594 41.113281 38.953125 40.394531 L 42.480469 43.777344 L 47.089844 48.601563 C 48.816406 47.808594 50.472656 47.019531 52.199219 46.371094 L 52.199219 57.890625 C 50.542969 58.753906 48.886719 59.691406 47.230469 60.699219 L 52.199219 65.664063 Z M 87.191406 14.761719 C 81.359375 13.464844 75.238281 12.816406 68.976563 12.816406 C 63.214844 12.816406 57.671875 13.394531 52.199219 14.472656 L 52.199219 40.539063 C 58.390625 38.953125 64.871094 38.089844 71.640625 38.089844 C 73.871094 38.089844 76.03125 38.234375 78.335938 38.449219 C 78.910156 39.242188 79.703125 40.105469 80.351563 40.96875 C 70.414063 40.96875 60.984375 42.914063 52.199219 46.371094 L 52.199219 57.890625 C 57.167969 55.296875 62.421875 53.28125 68.113281 51.984375 L 68.976563 52.851563 L 87.191406 71.136719 L 87.191406 65.808594 L 77.542969 56.160156 L 76.824219 55.371094 C 80.351563 55.800781 83.808594 56.59375 87.191406 57.601563 Z M 63.503906 82.296875 L 60.40625 79.273438 C 57.742188 78.410156 55.007813 77.761719 52.199219 77.257813 L 52.199219 65.664063 L 53.207031 66.601563 C 56.089844 66.386719 58.894531 66.53125 61.777344 66.890625 C 62.785156 70.128906 63.503906 73.730469 64.007813 77.328125 L 72.863281 86.328125 L 87.191406 72.003906 L 87.191406 77.402344 L 74.878906 89.714844 L 76.175781 121.96875 C 73.726563 122.257813 71.351563 122.328125 68.976563 122.328125 C 66.601563 122.328125 64.152344 122.257813 61.777344 121.96875 L 62.421875 108.363281 L 62.640625 103.175781 L 52.199219 92.738281 L 52.199219 87.410156 L 62.925781 97.992188 Z M 87.191406 77.402344 L 87.191406 72.003906 L 87.625 71.570313 L 87.191406 71.136719 L 87.191406 65.808594 L 90.289063 68.90625 L 96.121094 63.21875 L 97.632813 61.707031 C 94.320313 60.050781 90.792969 58.683594 87.191406 57.601563 L 87.191406 14.761719 C 89.136719 15.195313 91.082031 15.699219 92.953125 16.273438 C 95.761719 19.011719 98.28125 21.960938 100.800781 25.058594 C 101.519531 24.480469 102.382813 23.976563 103.320313 23.328125 C 113.761719 26.496094 123.480469 31.25 132.121094 37.585938 C 132.695313 38.882813 133.199219 40.25 133.703125 41.472656 C 125.785156 38.882813 117.289063 37.226563 108.503906 36.722656 C 109.367188 38.449219 110.375 40.105469 111.097656 41.90625 C 120.097656 43.632813 128.519531 46.585938 136.367188 50.617188 C 136.65625 51.84375 136.871094 53.136719 137.160156 54.507813 C 130.175781 52.851563 123.121094 52.128906 115.703125 52.128906 L 115.414063 52.128906 C 115.921875 53.714844 116.425781 55.371094 116.929688 57.027344 C 124.273438 58.320313 131.328125 60.410156 137.878906 63.21875 C 137.878906 64.011719 137.878906 64.585938 137.878906 65.378906 L 137.878906 66.027344 C 134.496094 65.59375 131.039063 65.523438 127.511719 65.523438 C 120.742188 65.523438 114.046875 66.097656 107.566406 67.539063 C 105.480469 66.097656 103.320313 64.730469 101.160156 63.433594 L 88.054688 76.609375 L 87.191406 77.402344 "/>
<path style=" stroke:none;fill-rule:evenodd;fill:rgb(3.09906%,59.199524%,55.699158%);fill-opacity:1;" d="M 3.960938 71.929688 C 11.375 100.875 37.65625 122.328125 68.976563 122.328125 C 100.296875 122.328125 126.648438 100.875 133.992188 71.929688 C 135.214844 71.785156 136.511719 71.570313 137.878906 71.425781 C 134.855469 106.707031 105.191406 134.496094 68.976563 134.496094 C 32.832031 134.496094 3.09375 106.707031 0 71.425781 C 1.441406 71.570313 2.664063 71.785156 3.960938 71.929688 "/>
<g clip-path="url(#clip2)" clip-rule="nonzero">
<path style=" stroke:none;fill-rule:evenodd;fill:rgb(0.799561%,0.799561%,0.799561%);fill-opacity:1;" d="M 55.726563 167.472656 L 55.726563 168.410156 C 52.054688 169.058594 50.039063 172.945313 50.039063 176.402344 C 50.039063 179.425781 51.40625 181.65625 54.71875 181.65625 C 55.082031 181.65625 55.367188 181.65625 55.726563 181.585938 L 55.726563 182.667969 C 55.367188 182.667969 55.082031 182.667969 54.71875 182.667969 C 50.761719 182.667969 48.886719 180.144531 48.886719 176.546875 C 48.886719 172.441406 51.40625 168.050781 55.726563 167.472656 Z M 28.441406 182.304688 L 29.734375 182.304688 L 31.824219 172.371094 L 44.496094 172.371094 L 42.335938 182.304688 L 43.558594 182.304688 L 47.878906 162.144531 L 46.585938 162.144531 L 44.710938 171.21875 L 32.113281 171.21875 L 34.128906 162.144531 L 32.832031 162.144531 Z M 106.488281 177.554688 C 105.550781 180.074219 103.679688 181.65625 100.871094 181.65625 C 97.847656 181.65625 96.480469 179.136719 96.480469 176.402344 C 96.480469 172.585938 99.144531 168.339844 103.320313 168.339844 C 105.839844 168.339844 107.351563 169.851563 107.351563 172.371094 L 108.503906 172.371094 C 108.574219 169.34375 106.34375 167.402344 103.320313 167.402344 C 98.640625 167.402344 95.472656 171.867188 95.472656 176.402344 C 95.472656 180.074219 96.984375 182.667969 101.015625 182.667969 C 104.328125 182.667969 106.558594 180.578125 107.710938 177.554688 Z M 67.175781 182.304688 L 68.617188 182.304688 L 75.382813 169.058594 L 76.824219 182.304688 L 78.046875 182.304688 L 85.753906 167.835938 L 84.601563 167.835938 L 77.6875 181.082031 L 76.320313 167.835938 L 74.878906 167.835938 L 68.183594 181.082031 L 68.113281 181.082031 L 66.671875 167.835938 L 65.519531 167.835938 Z M 55.726563 182.667969 L 55.726563 181.585938 C 59.472656 180.9375 61.414063 176.617188 61.414063 173.089844 C 61.414063 170.351563 59.976563 168.410156 56.953125 168.339844 C 56.519531 168.265625 56.089844 168.339844 55.726563 168.410156 L 55.726563 167.472656 C 56.015625 167.472656 56.375 167.402344 56.734375 167.402344 C 60.265625 167.402344 62.496094 169.5625 62.496094 173.089844 C 62.496094 177.195313 60.191406 182.019531 55.726563 182.667969 Z M 116.28125 174.242188 L 116.28125 175.175781 C 113.6875 175.320313 111.238281 175.679688 111.238281 178.777344 C 111.238281 180.9375 113.039063 181.65625 115.054688 181.65625 C 115.488281 181.65625 115.921875 181.65625 116.28125 181.585938 L 116.28125 182.523438 C 115.777344 182.667969 115.199219 182.667969 114.695313 182.667969 C 112.246094 182.667969 110.230469 181.585938 110.230469 178.777344 C 110.230469 175.105469 113.113281 174.3125 116.28125 174.242188 Z M 116.28125 167.691406 L 116.28125 168.625 C 114.839844 169.058594 113.832031 170.136719 113.398438 171.9375 L 112.246094 171.9375 C 112.824219 169.488281 114.265625 168.195313 116.28125 167.691406 Z M 153.144531 182.304688 L 154.441406 182.304688 L 161.207031 169.058594 L 161.28125 169.058594 L 162.574219 182.304688 L 163.800781 182.304688 L 171.648438 167.835938 L 170.421875 167.835938 L 163.582031 181.082031 L 163.441406 181.082031 L 162.214844 167.835938 L 160.703125 167.835938 L 154.078125 181.082031 L 153.9375 181.082031 L 152.566406 167.835938 L 151.414063 167.835938 Z M 125.785156 182.304688 L 126.792969 182.304688 L 128.160156 175.539063 C 128.953125 172.226563 131.039063 168.339844 134.710938 168.339844 C 136.871094 168.339844 138.167969 169.5625 138.167969 171.433594 C 138.167969 172.371094 137.878906 173.882813 137.734375 174.386719 L 136.007813 182.304688 L 137.015625 182.304688 L 138.742188 174.386719 C 138.886719 173.738281 139.246094 172.082031 139.246094 171.433594 C 139.246094 168.914063 137.230469 167.402344 135.144531 167.402344 C 132.480469 167.402344 130.464844 168.84375 129.167969 170.929688 L 129.960938 167.835938 L 128.808594 167.835938 Z M 116.28125 182.523438 L 116.28125 181.585938 C 118.871094 181.011719 120.167969 178.777344 120.816406 176.113281 L 121.320313 174.097656 C 120.601563 174.890625 118.078125 175.035156 116.785156 175.105469 C 116.640625 175.105469 116.496094 175.105469 116.28125 175.175781 L 116.28125 174.242188 L 116.566406 174.242188 C 120.601563 174.097656 121.96875 173.449219 121.96875 171.363281 C 121.96875 169.5625 120.960938 168.339844 118.296875 168.339844 C 117.574219 168.339844 116.929688 168.410156 116.28125 168.625 L 116.28125 167.691406 C 117 167.472656 117.71875 167.402344 118.585938 167.402344 C 119.953125 167.402344 122.976563 167.90625 122.976563 170.859375 C 122.976563 172.082031 122.257813 175.394531 122.113281 175.898438 C 121.753906 177.410156 121.105469 179.640625 121.105469 180.578125 C 121.105469 181.082031 121.320313 181.441406 121.824219 181.441406 C 122.257813 181.441406 122.472656 181.296875 122.902344 181.296875 L 122.761719 182.160156 C 122.257813 182.304688 121.824219 182.304688 121.464844 182.304688 C 120.457031 182.304688 120.097656 181.585938 120.097656 180.792969 C 120.097656 180.578125 120.238281 180.074219 120.238281 179.640625 C 119.375 181.152344 117.863281 182.089844 116.28125 182.523438 Z M 178.703125 167.472656 L 178.703125 168.410156 C 175.824219 168.84375 174.023438 171.503906 173.449219 174.242188 L 178.703125 174.242188 L 178.703125 175.105469 L 173.304688 175.105469 C 173.160156 175.609375 173.160156 176.257813 173.160156 176.761719 C 173.160156 179.425781 174.816406 181.65625 177.695313 181.65625 C 178.054688 181.65625 178.414063 181.65625 178.703125 181.585938 L 178.703125 182.59375 C 178.34375 182.667969 177.984375 182.667969 177.625 182.667969 C 173.953125 182.667969 172.007813 180.074219 172.007813 176.90625 C 172.007813 171.867188 174.601563 168.050781 178.703125 167.472656 Z M 196.273438 182.304688 L 197.28125 182.304688 L 198.789063 175.539063 C 199.441406 172.226563 201.601563 168.339844 205.273438 168.339844 C 207.503906 168.339844 208.65625 169.5625 208.65625 171.433594 C 208.65625 172.371094 208.367188 173.882813 208.296875 174.386719 L 206.496094 182.304688 L 207.503906 182.304688 L 209.375 174.386719 C 209.519531 173.738281 209.808594 172.082031 209.808594 171.433594 C 209.808594 168.914063 207.863281 167.402344 205.632813 167.402344 C 203.113281 167.402344 201.09375 168.84375 199.800781 170.859375 L 199.65625 170.859375 L 201.601563 162.144531 L 200.589844 162.144531 Z M 178.703125 175.105469 L 178.703125 174.242188 L 183.886719 174.242188 C 184.03125 173.738281 184.03125 173.378906 184.03125 172.945313 C 184.03125 170.570313 182.664063 168.339844 179.640625 168.339844 C 179.28125 168.339844 178.992188 168.339844 178.703125 168.410156 L 178.703125 167.472656 C 179.0625 167.472656 179.421875 167.402344 179.710938 167.402344 C 183.167969 167.402344 185.183594 169.851563 185.183594 172.945313 C 185.183594 173.738281 185.039063 174.53125 184.894531 175.105469 Z M 178.703125 182.59375 L 178.703125 181.585938 C 181.007813 181.152344 182.808594 179.425781 183.238281 177.554688 L 184.25 177.554688 C 183.601563 180.21875 181.65625 182.234375 178.703125 182.59375 Z M 219.3125 167.472656 L 219.3125 168.339844 C 216.433594 168.769531 214.632813 171.433594 214.054688 174.242188 L 219.3125 174.242188 L 219.3125 175.105469 L 213.839844 175.105469 C 213.839844 175.609375 213.695313 176.257813 213.695313 176.761719 C 213.695313 179.425781 215.351563 181.65625 218.375 181.65625 C 218.664063 181.65625 219.023438 181.65625 219.3125 181.585938 L 219.3125 182.59375 C 218.953125 182.667969 218.589844 182.667969 218.230469 182.667969 C 214.558594 182.667969 212.6875 180.074219 212.6875 176.90625 C 212.6875 171.867188 215.136719 168.050781 219.3125 167.472656 Z M 219.3125 175.105469 L 219.3125 174.242188 L 224.421875 174.242188 C 224.566406 173.738281 224.566406 173.378906 224.566406 172.945313 C 224.566406 170.570313 223.128906 168.339844 220.105469 168.339844 C 219.816406 168.339844 219.601563 168.339844 219.3125 168.339844 L 219.3125 167.472656 C 219.671875 167.472656 220.03125 167.402344 220.390625 167.402344 C 223.777344 167.402344 225.71875 169.851563 225.71875 172.945313 C 225.71875 173.738281 225.574219 174.53125 225.433594 175.105469 Z M 219.3125 182.59375 L 219.3125 181.585938 C 221.542969 181.226563 223.34375 179.425781 223.777344 177.554688 L 224.929688 177.554688 C 224.136719 180.21875 222.121094 182.234375 219.3125 182.59375 Z M 232.847656 186.050781 L 232.847656 187.488281 L 232.488281 187.488281 Z M 232.847656 162.144531 L 232.847656 163.65625 L 228.960938 182.304688 L 227.808594 182.304688 L 231.984375 162.144531 Z M 232.847656 163.65625 L 232.847656 162.144531 L 233.136719 162.144531 Z M 241.558594 167.546875 L 241.558594 168.410156 C 237.960938 169.128906 236.160156 173.667969 236.160156 176.761719 C 236.160156 179.066406 237.816406 181.65625 240.695313 181.65625 C 240.984375 181.65625 241.34375 181.65625 241.558594 181.585938 L 241.558594 182.59375 C 241.273438 182.667969 240.910156 182.667969 240.550781 182.667969 C 238.03125 182.667969 236.304688 180.9375 235.65625 178.5625 L 235.511719 178.5625 L 233.640625 187.488281 L 232.847656 187.488281 L 232.847656 186.050781 L 236.808594 167.835938 L 237.816406 167.835938 L 237.167969 170.570313 L 237.3125 170.570313 C 238.03125 169.128906 239.6875 167.90625 241.558594 167.546875 Z M 257.902344 187.34375 C 258.121094 187.488281 258.480469 187.488281 258.984375 187.488281 C 261.070313 187.488281 261.9375 186.625 262.945313 184.824219 L 272.808594 167.835938 L 271.511719 167.835938 L 264.09375 180.792969 L 261.648438 167.835938 L 260.421875 167.835938 L 263.304688 182.304688 L 261.9375 184.609375 C 261.144531 185.761719 260.421875 186.625 259.128906 186.625 C 258.769531 186.625 258.40625 186.480469 257.976563 186.480469 Z M 241.558594 182.59375 L 241.558594 181.585938 C 245.304688 181.011719 247.03125 176.761719 247.03125 173.378906 C 247.03125 170.425781 245.664063 168.339844 242.640625 168.339844 C 242.28125 168.339844 241.917969 168.339844 241.558594 168.410156 L 241.558594 167.546875 C 241.992188 167.472656 242.351563 167.402344 242.710938 167.402344 C 246.671875 167.402344 248.183594 170.066406 248.183594 173.449219 C 248.183594 177.480469 245.878906 182.019531 241.558594 182.59375 Z M 280.082031 167.472656 L 280.082031 168.410156 C 276.480469 169.058594 274.390625 172.945313 274.390625 176.402344 C 274.390625 179.425781 275.832031 181.65625 279.070313 181.65625 C 279.433594 181.65625 279.792969 181.65625 280.082031 181.585938 L 280.082031 182.667969 C 279.792969 182.667969 279.433594 182.667969 279.070313 182.667969 C 275.183594 182.667969 273.3125 180.144531 273.3125 176.546875 C 273.3125 172.441406 275.761719 168.050781 280.082031 167.472656 Z M 309.886719 177.121094 C 310.390625 173.953125 311.183594 173.449219 313.777344 171.867188 C 316.367188 170.066406 317.375 168.84375 317.375 166.320313 C 317.375 163.152344 314.710938 161.640625 311.902344 161.640625 C 307.871094 161.640625 305.710938 164.738281 305.351563 168.339844 L 306.648438 168.339844 C 307.152344 165.027344 308.519531 162.722656 311.902344 162.722656 C 314.28125 162.722656 316.078125 164.019531 316.078125 166.539063 C 316.078125 168.410156 314.785156 169.707031 313.921875 170.351563 C 312.191406 171.867188 309.023438 172.585938 308.664063 177.121094 Z M 307.367188 182.304688 L 308.878906 182.304688 L 309.527344 179.425781 L 308.160156 179.425781 Z M 302.976563 167.835938 L 301.96875 167.835938 L 300.457031 174.601563 C 299.808594 177.914063 297.648438 181.65625 294.121094 181.65625 C 291.960938 181.65625 290.734375 180.433594 290.734375 178.5625 C 290.734375 177.769531 291.09375 176.257813 291.09375 175.609375 L 292.96875 167.835938 L 291.816406 167.835938 L 290.089844 175.753906 C 289.945313 176.402344 289.726563 177.914063 289.726563 178.632813 C 289.726563 181.152344 291.601563 182.667969 293.761719 182.667969 C 296.640625 182.667969 298.152344 181.296875 299.449219 179.136719 L 299.519531 179.28125 L 298.800781 182.304688 L 299.953125 182.304688 Z M 280.082031 182.667969 L 280.082031 181.585938 C 283.824219 180.9375 285.769531 176.617188 285.769531 173.089844 C 285.769531 170.351563 284.398438 168.410156 281.375 168.339844 C 280.945313 168.265625 280.511719 168.339844 280.082031 168.410156 L 280.082031 167.472656 C 280.441406 167.472656 280.800781 167.402344 281.089844 167.402344 C 284.617188 167.402344 286.921875 169.5625 286.921875 173.089844 C 286.921875 177.195313 284.617188 182.019531 280.082031 182.667969 "/>
</g>
<path style=" stroke:none;fill-rule:nonzero;fill:rgb(2.69928%,59.599304%,55.699158%);fill-opacity:1;" d="M 201.023438 137.449219 L 205.703125 137.449219 L 205.703125 139.464844 L 200.589844 139.464844 L 199.222656 145.875 L 205.199219 145.875 C 205.34375 145.875 205.558594 145.875 205.703125 145.875 L 205.703125 147.960938 L 196.414063 147.960938 L 200.304688 129.457031 L 205.703125 129.457031 L 205.703125 131.546875 L 202.25 131.546875 Z M 222.121094 134.28125 L 222.121094 136.296875 C 221.542969 136.371094 221.113281 136.515625 220.679688 136.800781 C 220.03125 137.234375 219.457031 137.738281 219.023438 138.386719 C 218.589844 139.035156 218.304688 139.753906 218.089844 140.472656 C 217.871094 141.265625 217.726563 141.984375 217.726563 142.632813 C 217.726563 143.785156 218.089844 144.648438 218.664063 145.371094 C 219.3125 146.019531 220.25 146.378906 221.472656 146.378906 C 221.6875 146.378906 221.902344 146.304688 222.121094 146.304688 L 222.121094 148.25 C 221.832031 148.25 221.472656 148.320313 221.183594 148.320313 C 220.320313 148.320313 219.527344 148.175781 218.808594 147.890625 C 218.160156 147.601563 217.511719 147.242188 217.082031 146.738281 C 216.574219 146.234375 216.214844 145.585938 215.929688 144.9375 C 215.710938 144.21875 215.566406 143.496094 215.566406 142.707031 C 215.566406 141.625 215.710938 140.546875 216.070313 139.539063 C 216.359375 138.53125 216.863281 137.59375 217.511719 136.800781 C 218.160156 136.082031 218.953125 135.433594 219.886719 134.929688 C 220.535156 134.640625 221.257813 134.425781 222.121094 134.28125 Z M 205.703125 137.449219 L 206.496094 137.449219 C 207.789063 137.449219 208.800781 137.089844 209.449219 136.515625 C 210.09375 135.9375 210.457031 135.074219 210.457031 133.921875 C 210.457031 133.34375 210.3125 132.914063 210.09375 132.625 C 209.878906 132.265625 209.589844 132.050781 209.230469 131.90625 C 208.871094 131.761719 208.441406 131.617188 208.007813 131.617188 C 207.574219 131.546875 207.214844 131.546875 206.785156 131.546875 L 205.703125 131.546875 L 205.703125 129.457031 L 207.71875 129.457031 C 209.589844 129.457031 210.886719 129.816406 211.679688 130.609375 C 212.472656 131.402344 212.902344 132.480469 212.902344 133.921875 C 212.902344 134.425781 212.832031 134.929688 212.6875 135.433594 C 212.472656 135.9375 212.257813 136.371094 211.96875 136.730469 C 211.679688 137.160156 211.320313 137.523438 210.816406 137.808594 C 210.382813 138.097656 209.953125 138.242188 209.375 138.386719 C 210.238281 138.671875 210.886719 139.105469 211.390625 139.753906 C 211.894531 140.402344 212.183594 141.265625 212.183594 142.273438 C 212.183594 143.136719 211.96875 143.929688 211.679688 144.648438 C 211.320313 145.371094 210.816406 145.945313 210.238281 146.449219 C 209.664063 146.953125 208.945313 147.3125 208.152344 147.601563 C 207.433594 147.816406 206.566406 147.960938 205.703125 147.960938 L 205.703125 145.875 C 205.917969 145.875 206.136719 145.875 206.421875 145.800781 C 206.929688 145.730469 207.433594 145.585938 207.9375 145.371094 C 208.367188 145.082031 208.800781 144.722656 209.160156 144.21875 C 209.519531 143.785156 209.664063 143.066406 209.664063 142.273438 C 209.664063 141.625 209.589844 141.195313 209.375 140.835938 C 209.160156 140.472656 208.871094 140.183594 208.511719 139.96875 C 208.152344 139.824219 207.789063 139.679688 207.289063 139.609375 C 206.855469 139.539063 206.351563 139.464844 205.847656 139.464844 L 205.703125 139.464844 Z M 266.761719 147.960938 L 264.382813 147.960938 L 263.734375 137.523438 L 263.664063 137.523438 L 258.910156 147.960938 L 256.535156 147.960938 L 254.953125 134.570313 L 257.328125 134.570313 L 258.121094 145.226563 L 258.191406 145.226563 L 263.015625 134.570313 L 265.464844 134.570313 L 266.113281 145.226563 L 266.183594 145.226563 L 271.296875 134.570313 L 273.671875 134.570313 Z M 249.550781 138.53125 C 249.550781 138.097656 249.480469 137.808594 249.335938 137.523438 C 249.265625 137.234375 249.046875 137.019531 248.761719 136.800781 C 248.542969 136.585938 248.183594 136.441406 247.894531 136.371094 C 247.535156 136.226563 247.175781 136.226563 246.742188 136.226563 C 246.457031 136.226563 246.09375 136.226563 245.734375 136.296875 C 245.375 136.296875 245.089844 136.441406 244.871094 136.585938 C 244.582031 136.65625 244.367188 136.875 244.152344 137.089844 C 244.007813 137.304688 243.9375 137.59375 243.9375 137.882813 C 243.9375 138.242188 244.007813 138.457031 244.222656 138.746094 C 244.441406 138.960938 244.65625 139.175781 245.015625 139.320313 C 245.375 139.539063 245.734375 139.679688 246.167969 139.898438 C 246.601563 140.042969 247.03125 140.183594 247.464844 140.402344 C 247.894531 140.546875 248.328125 140.761719 248.761719 140.976563 C 249.191406 141.195313 249.550781 141.480469 249.910156 141.769531 C 250.199219 142.058594 250.488281 142.417969 250.703125 142.777344 C 250.921875 143.136719 250.992188 143.640625 250.992188 144.144531 C 250.992188 144.867188 250.847656 145.515625 250.488281 146.019531 C 250.199219 146.59375 249.769531 147.027344 249.265625 147.3125 C 248.6875 147.671875 248.113281 147.890625 247.464844 148.035156 C 246.816406 148.25 246.167969 148.320313 245.519531 148.320313 C 244.800781 148.320313 244.082031 148.25 243.359375 148.035156 C 242.710938 147.890625 242.136719 147.671875 241.632813 147.3125 C 241.199219 146.953125 240.769531 146.523438 240.550781 145.945313 C 240.265625 145.371094 240.121094 144.648438 240.121094 143.785156 L 242.28125 143.785156 C 242.28125 144.21875 242.351563 144.648438 242.496094 145.011719 C 242.710938 145.296875 242.929688 145.585938 243.289063 145.800781 C 243.574219 146.019531 244.007813 146.160156 244.367188 146.234375 C 244.800781 146.304688 245.230469 146.378906 245.734375 146.378906 C 246.09375 146.378906 246.457031 146.304688 246.816406 146.234375 C 247.175781 146.160156 247.535156 146.089844 247.824219 145.875 C 248.113281 145.730469 248.328125 145.515625 248.542969 145.226563 C 248.6875 145.011719 248.832031 144.648438 248.832031 144.289063 C 248.832031 144.003906 248.6875 143.714844 248.472656 143.425781 C 248.328125 143.210938 248.039063 142.992188 247.679688 142.851563 C 247.390625 142.632813 246.960938 142.417969 246.527344 142.273438 C 246.09375 142.128906 245.734375 141.914063 245.230469 141.769531 C 244.800781 141.554688 244.367188 141.410156 243.9375 141.195313 C 243.503906 140.976563 243.144531 140.761719 242.785156 140.472656 C 242.496094 140.183594 242.207031 139.824219 241.992188 139.464844 C 241.847656 139.035156 241.703125 138.601563 241.703125 138.097656 C 241.703125 137.523438 241.847656 136.945313 242.136719 136.441406 C 242.421875 136.011719 242.785156 135.578125 243.289063 135.289063 C 243.71875 134.929688 244.296875 134.714844 244.871094 134.496094 C 245.449219 134.351563 246.09375 134.28125 246.671875 134.28125 C 247.320313 134.28125 247.894531 134.351563 248.542969 134.496094 C 249.121094 134.640625 249.695313 134.859375 250.128906 135.21875 C 250.632813 135.503906 250.992188 136.011719 251.28125 136.515625 C 251.640625 137.089844 251.785156 137.738281 251.785156 138.53125 Z M 236.808594 134.570313 L 239.472656 134.570313 L 239.039063 136.515625 L 236.375 136.515625 L 234.71875 144.433594 C 234.71875 144.578125 234.71875 144.722656 234.71875 144.867188 C 234.648438 145.011719 234.648438 145.152344 234.648438 145.296875 C 234.648438 145.65625 234.789063 145.875 235.082031 146.019531 C 235.367188 146.160156 235.65625 146.160156 236.015625 146.160156 C 236.230469 146.160156 236.449219 146.160156 236.664063 146.160156 C 236.808594 146.089844 237.023438 146.019531 237.238281 145.945313 L 236.878906 147.960938 C 236.375 148.105469 235.800781 148.105469 235.296875 148.105469 C 234.863281 148.105469 234.503906 148.105469 234.144531 148.035156 C 233.785156 147.960938 233.496094 147.816406 233.207031 147.671875 C 232.917969 147.53125 232.703125 147.3125 232.558594 147.027344 C 232.414063 146.738281 232.273438 146.378906 232.273438 145.945313 C 232.273438 145.800781 232.34375 145.585938 232.34375 145.441406 C 232.34375 145.226563 232.414063 145.082031 232.414063 144.867188 L 234.214844 136.515625 L 231.910156 136.515625 L 232.34375 134.570313 L 234.574219 134.570313 L 235.441406 130.609375 L 237.671875 130.609375 Z M 222.121094 148.25 L 222.121094 146.304688 C 222.625 146.234375 223.128906 146.019531 223.558594 145.730469 C 224.207031 145.296875 224.710938 144.792969 225.144531 144.144531 C 225.574219 143.496094 225.863281 142.851563 226.082031 142.058594 C 226.296875 141.339844 226.441406 140.617188 226.441406 139.96875 C 226.441406 139.464844 226.367188 138.960938 226.222656 138.53125 C 226.082031 138.027344 225.863281 137.667969 225.574219 137.304688 C 225.289063 136.945313 224.929688 136.730469 224.496094 136.515625 C 223.992188 136.296875 223.488281 136.226563 222.910156 136.226563 C 222.625 136.226563 222.335938 136.226563 222.121094 136.296875 L 222.121094 134.28125 C 222.40625 134.28125 222.695313 134.28125 223.054688 134.28125 C 224.855469 134.28125 226.222656 134.714844 227.160156 135.648438 C 228.167969 136.65625 228.601563 138.027344 228.601563 139.824219 C 228.601563 140.90625 228.457031 141.984375 228.167969 142.992188 C 227.808594 144.003906 227.304688 144.867188 226.65625 145.65625 C 226.007813 146.449219 225.289063 147.097656 224.351563 147.601563 C 223.632813 147.960938 222.910156 148.175781 222.121094 148.25 Z M 280.296875 140.183594 L 280.296875 141.984375 C 280.082031 141.984375 279.863281 141.984375 279.574219 142.058594 C 279.214844 142.058594 278.855469 142.203125 278.496094 142.273438 C 278.136719 142.34375 277.777344 142.488281 277.488281 142.707031 C 277.273438 142.851563 277.054688 143.136719 276.839844 143.425781 C 276.695313 143.714844 276.625 144.074219 276.625 144.503906 C 276.625 145.082031 276.839844 145.585938 277.34375 145.875 C 277.847656 146.160156 278.421875 146.378906 279 146.378906 C 279.503906 146.378906 279.9375 146.304688 280.296875 146.234375 L 280.296875 148.105469 C 279.792969 148.25 279.214844 148.320313 278.496094 148.320313 C 277.992188 148.320313 277.414063 148.25 276.910156 148.105469 C 276.40625 147.960938 275.976563 147.746094 275.617188 147.457031 C 275.257813 147.097656 274.96875 146.738281 274.753906 146.234375 C 274.535156 145.800781 274.390625 145.226563 274.390625 144.503906 C 274.390625 143.570313 274.609375 142.777344 275.039063 142.203125 C 275.472656 141.625 276.046875 141.195313 276.695313 140.90625 C 277.34375 140.617188 278.0625 140.472656 278.855469 140.328125 C 279.359375 140.257813 279.863281 140.257813 280.296875 140.183594 Z M 280.296875 134.425781 L 280.296875 136.441406 C 280.007813 136.515625 279.792969 136.585938 279.503906 136.730469 C 279.214844 136.945313 278.929688 137.234375 278.710938 137.523438 C 278.496094 137.808594 278.351563 138.167969 278.28125 138.601563 L 276.046875 138.601563 C 276.121094 137.882813 276.40625 137.234375 276.769531 136.65625 C 277.128906 136.152344 277.558594 135.648438 278.0625 135.289063 C 278.566406 134.929688 279.144531 134.714844 279.792969 134.496094 C 279.9375 134.496094 280.152344 134.425781 280.296875 134.425781 Z M 291.886719 134.570313 L 294.046875 134.570313 L 293.617188 136.585938 L 293.6875 136.585938 C 294.265625 135.792969 294.910156 135.21875 295.777344 134.859375 C 296.640625 134.425781 297.503906 134.28125 298.441406 134.28125 C 299.734375 134.28125 300.671875 134.496094 301.25 135.074219 C 301.894531 135.648438 302.183594 136.515625 302.183594 137.738281 C 302.183594 138.027344 302.183594 138.386719 302.113281 138.816406 C 302.039063 139.320313 301.894531 139.824219 301.824219 140.328125 L 300.167969 147.960938 L 297.9375 147.960938 L 299.664063 140.113281 C 299.664063 140.042969 299.734375 139.898438 299.734375 139.679688 C 299.808594 139.464844 299.878906 139.320313 299.878906 139.105469 C 299.878906 138.890625 299.953125 138.671875 299.953125 138.53125 C 299.953125 138.3125 300.023438 138.167969 300.023438 138.097656 C 300.023438 137.449219 299.734375 136.945313 299.304688 136.65625 C 298.871094 136.371094 298.296875 136.226563 297.648438 136.226563 C 297.070313 136.226563 296.421875 136.371094 295.847656 136.65625 C 295.273438 136.945313 294.769531 137.304688 294.335938 137.738281 C 293.902344 138.097656 293.617188 138.53125 293.398438 139.035156 C 293.183594 139.539063 292.96875 140.042969 292.824219 140.546875 L 291.3125 147.960938 L 289.082031 147.960938 Z M 280.296875 148.105469 L 280.296875 146.234375 C 281.375 146.019531 282.238281 145.441406 282.816406 144.578125 C 283.175781 144.074219 283.390625 143.570313 283.535156 142.921875 C 283.679688 142.34375 283.824219 141.769531 283.96875 141.121094 L 283.894531 141.121094 C 283.679688 141.265625 283.390625 141.410156 283.03125 141.480469 C 282.742188 141.554688 282.382813 141.625 282.023438 141.699219 C 281.664063 141.769531 281.230469 141.84375 280.800781 141.914063 C 280.65625 141.914063 280.441406 141.914063 280.296875 141.984375 L 280.296875 140.183594 C 280.585938 140.183594 280.871094 140.113281 281.160156 140.113281 C 281.808594 140.042969 282.3125 139.96875 282.671875 139.898438 C 283.105469 139.898438 283.464844 139.753906 283.753906 139.609375 C 284.039063 139.464844 284.257813 139.320313 284.398438 139.035156 C 284.472656 138.746094 284.542969 138.386719 284.542969 137.953125 C 284.542969 137.59375 284.472656 137.304688 284.328125 137.089844 C 284.113281 136.875 283.894531 136.65625 283.679688 136.585938 C 283.390625 136.441406 283.105469 136.296875 282.816406 136.296875 C 282.457031 136.226563 282.167969 136.226563 281.878906 136.226563 C 281.449219 136.226563 281.015625 136.226563 280.65625 136.296875 C 280.511719 136.371094 280.367188 136.371094 280.296875 136.441406 L 280.296875 134.425781 C 280.800781 134.28125 281.304688 134.28125 281.878906 134.28125 C 282.527344 134.28125 283.105469 134.28125 283.753906 134.425781 C 284.328125 134.496094 284.832031 134.714844 285.265625 134.929688 C 285.769531 135.21875 286.128906 135.578125 286.34375 136.011719 C 286.632813 136.441406 286.777344 137.019531 286.777344 137.667969 C 286.777344 138.027344 286.703125 138.457031 286.632813 138.890625 C 286.558594 139.320313 286.414063 139.753906 286.34375 140.113281 L 285.480469 143.785156 C 285.40625 144.074219 285.335938 144.363281 285.265625 144.722656 C 285.191406 145.082031 285.121094 145.371094 285.121094 145.730469 C 285.121094 146.019531 285.191406 146.234375 285.335938 146.378906 C 285.40625 146.449219 285.625 146.523438 285.769531 146.523438 C 285.910156 146.523438 285.984375 146.523438 286.128906 146.449219 C 286.273438 146.449219 286.34375 146.378906 286.488281 146.378906 L 286.128906 147.960938 C 285.984375 148.035156 285.769531 148.105469 285.480469 148.175781 C 285.191406 148.25 284.976563 148.320313 284.761719 148.320313 C 284.183594 148.320313 283.753906 148.105469 283.390625 147.816406 C 283.105469 147.457031 282.960938 146.953125 283.03125 146.378906 C 282.527344 146.953125 281.953125 147.457031 281.230469 147.816406 C 281.015625 147.960938 280.65625 148.035156 280.296875 148.105469 Z M 310.320313 140.183594 L 310.320313 141.984375 C 310.105469 141.984375 309.886719 141.984375 309.671875 142.058594 C 309.238281 142.058594 308.878906 142.203125 308.519531 142.273438 C 308.160156 142.34375 307.871094 142.488281 307.585938 142.707031 C 307.296875 142.851563 307.082031 143.136719 306.9375 143.425781 C 306.792969 143.714844 306.648438 144.074219 306.648438 144.503906 C 306.648438 145.082031 306.9375 145.585938 307.441406 145.875 C 307.945313 146.160156 308.449219 146.378906 309.09375 146.378906 C 309.527344 146.378906 309.960938 146.304688 310.320313 146.234375 L 310.320313 148.105469 C 309.816406 148.25 309.238281 148.320313 308.589844 148.320313 C 308.015625 148.320313 307.511719 148.25 307.007813 148.105469 C 306.503906 147.960938 306.070313 147.746094 305.710938 147.457031 C 305.28125 147.097656 304.992188 146.738281 304.777344 146.234375 C 304.558594 145.800781 304.488281 145.226563 304.488281 144.503906 C 304.488281 143.570313 304.703125 142.777344 305.136719 142.203125 C 305.496094 141.625 306.070313 141.195313 306.71875 140.90625 C 307.441406 140.617188 308.160156 140.472656 308.953125 140.328125 C 309.382813 140.257813 309.886719 140.257813 310.320313 140.183594 Z M 310.320313 134.425781 L 310.320313 136.441406 C 310.105469 136.515625 309.816406 136.585938 309.601563 136.730469 C 309.238281 136.945313 308.953125 137.234375 308.734375 137.523438 C 308.519531 137.808594 308.375 138.167969 308.304688 138.601563 L 306.070313 138.601563 C 306.214844 137.882813 306.433594 137.234375 306.792969 136.65625 C 307.152344 136.152344 307.585938 135.648438 308.089844 135.289063 C 308.589844 134.929688 309.238281 134.714844 309.886719 134.496094 C 310.03125 134.496094 310.175781 134.425781 310.320313 134.425781 Z M 310.320313 148.105469 L 310.320313 146.234375 C 311.472656 146.019531 312.265625 145.441406 312.839844 144.578125 C 313.199219 144.074219 313.488281 143.570313 313.558594 142.921875 C 313.703125 142.34375 313.847656 141.769531 313.992188 141.121094 C 313.703125 141.265625 313.414063 141.410156 313.128906 141.480469 C 312.769531 141.554688 312.40625 141.625 312.046875 141.699219 C 311.6875 141.769531 311.328125 141.84375 310.894531 141.914063 C 310.679688 141.914063 310.535156 141.914063 310.320313 141.984375 L 310.320313 140.183594 C 310.679688 140.183594 310.96875 140.113281 311.257813 140.113281 C 311.832031 140.042969 312.335938 139.96875 312.769531 139.898438 C 313.199219 139.898438 313.558594 139.753906 313.847656 139.609375 C 314.0625 139.464844 314.28125 139.320313 314.421875 139.035156 C 314.566406 138.746094 314.640625 138.386719 314.640625 137.953125 C 314.640625 137.59375 314.496094 137.304688 314.351563 137.089844 C 314.207031 136.875 313.992188 136.65625 313.703125 136.585938 C 313.414063 136.441406 313.128906 136.296875 312.839844 136.296875 C 312.550781 136.226563 312.191406 136.226563 311.902344 136.226563 C 311.472656 136.226563 311.113281 136.226563 310.679688 136.296875 C 310.535156 136.371094 310.464844 136.371094 310.320313 136.441406 L 310.320313 134.425781 C 310.824219 134.28125 311.398438 134.28125 311.902344 134.28125 C 312.550781 134.28125 313.199219 134.28125 313.777344 134.425781 C 314.351563 134.496094 314.929688 134.714844 315.359375 134.929688 C 315.792969 135.21875 316.152344 135.578125 316.441406 136.011719 C 316.65625 136.441406 316.800781 137.019531 316.800781 137.667969 C 316.800781 138.027344 316.800781 138.457031 316.65625 138.890625 C 316.585938 139.320313 316.511719 139.753906 316.441406 140.113281 L 315.574219 143.785156 C 315.503906 144.074219 315.433594 144.363281 315.359375 144.722656 C 315.214844 145.082031 315.214844 145.371094 315.214844 145.730469 C 315.214844 146.019531 315.214844 146.234375 315.359375 146.378906 C 315.503906 146.449219 315.648438 146.523438 315.863281 146.523438 C 315.9375 146.523438 316.078125 146.523438 316.152344 146.449219 C 316.296875 146.449219 316.441406 146.378906 316.511719 146.378906 L 316.222656 147.960938 C 316.007813 148.035156 315.792969 148.105469 315.503906 148.175781 C 315.289063 148.25 315.070313 148.320313 314.855469 148.320313 C 314.28125 148.320313 313.777344 148.105469 313.488281 147.816406 C 313.199219 147.457031 313.054688 146.953125 313.128906 146.378906 L 313.054688 146.378906 C 312.625 146.953125 312.046875 147.457031 311.328125 147.816406 C 311.039063 147.960938 310.679688 148.035156 310.320313 148.105469 "/>
</g>
</svg>
