<?xml version="1.0" encoding="UTF-8"?>
<svg xmlns="http://www.w3.org/2000/svg" xmlns:xlink="http://www.w3.org/1999/xlink" width="436.25pt" height="77.33pt" viewBox="0 0 436.25 77.33" version="1.1">
<defs>
<clipPath id="clip1">
  <path d="M 102 23 L 436.25 23 L 436.25 65 L 102 65 Z M 102 23 "/>
</clipPath>
<clipPath id="clip2">
  <path d="M 0 0 L 91 0 L 91 77.328125 L 0 77.328125 Z M 0 0 "/>
</clipPath>
</defs>
<g id="surface1">
<g clip-path="url(#clip1)" clip-rule="nonzero">
<path style=" stroke:none;fill-rule:evenodd;fill:rgb(13.699341%,12.199402%,12.5%);fill-opacity:1;" d="M 141.070313 49.261719 C 141.070313 58.742188 142.496094 61.976563 146.390625 61.976563 C 150.28125 61.976563 151.703125 58.742188 151.703125 49.261719 C 151.703125 38.410156 149.292969 36.601563 146.390625 36.601563 C 143.484375 36.601563 141.070313 38.410156 141.070313 49.261719 Z M 103.171875 62.136719 C 103.171875 62.136719 110.496094 64.773438 115.777344 64.773438 C 122.953125 64.773438 129.3125 60.222656 129.3125 52.441406 C 129.3125 36.601563 108.433594 41.535156 108.433594 32.054688 C 108.433594 27.777344 112.378906 25.914063 116.105469 25.914063 C 121.148438 25.914063 124.984375 29.257813 125.3125 34.191406 L 127.394531 34.191406 L 127.394531 26.570313 C 127.394531 26.570313 120.582031 23.996094 115.832031 23.996094 C 108.707031 23.996094 102.839844 28.050781 102.839844 35.78125 C 102.839844 50.25 123.394531 45.644531 123.394531 55.839844 C 123.394531 60.167969 120.378906 62.855469 115.777344 62.855469 C 110.132813 62.855469 105.253906 58.90625 105.253906 53.480469 L 103.171875 53.480469 Z M 408.300781 63.894531 L 419.589844 63.894531 L 419.589844 62.304688 L 418.382813 62.304688 C 416.738281 62.304688 416.191406 61.59375 416.191406 58.578125 L 416.191406 48.382813 C 416.191406 44.988281 416.191406 38.957031 421.453125 38.957031 C 424.960938 38.957031 424.960938 42.082031 424.960938 44.769531 L 424.960938 63.894531 L 436.25 63.894531 L 436.25 62.304688 L 435.046875 62.304688 C 433.398438 62.304688 432.855469 61.59375 432.855469 58.578125 L 432.855469 43.34375 C 432.855469 38.792969 430.222656 35.5625 424.851563 35.5625 C 420.796875 35.5625 418.164063 37.316406 415.972656 40.4375 L 415.863281 36.4375 L 404.246094 36.4375 L 404.246094 38.027344 L 406.105469 38.027344 C 407.753906 38.027344 408.300781 38.738281 408.300781 41.753906 Z M 297.238281 35.949219 C 300.269531 35.949219 302.492188 37.796875 302.492188 40.078125 C 302.492188 42.359375 300.25 44.210938 297.484375 44.210938 C 294.835938 44.210938 292.671875 42.515625 292.488281 40.371094 C 291.269531 41.359375 289.710938 45.511719 289.710938 45.511719 L 289.710938 58.578125 C 289.710938 61.59375 290.257813 62.304688 291.902344 62.304688 L 294.421875 62.304688 L 294.421875 63.894531 L 281.816406 63.894531 L 281.816406 57.339844 C 277.75 61.320313 271.960938 64.773438 264.121094 64.773438 C 255.40625 64.773438 249.785156 58.6875 249.785156 50.136719 C 249.785156 41.644531 254.609375 35.5625 263.320313 35.5625 C 272.476563 35.5625 275.707031 41.753906 275.707031 50.25 L 262.382813 50.25 L 262.382813 48.660156 L 267.15625 48.660156 C 267.15625 42.738281 267.15625 37.480469 263.105469 37.480469 C 258.554688 37.480469 258.335938 43.289063 258.335938 48.660156 L 258.335938 51.617188 C 258.335938 57.097656 259.628906 61.871094 265.875 61.871094 C 275.273438 61.871094 283.390625 54.03125 287.589844 46.28125 C 288.015625 45.496094 284.480469 49.636719 281.816406 51.164063 L 281.816406 41.753906 C 281.816406 38.738281 281.269531 38.027344 279.625 38.027344 L 277.761719 38.027344 L 277.761719 36.4375 L 289.382813 36.4375 L 289.601563 41.753906 C 290.808594 38.957031 293.144531 35.949219 297.238281 35.949219 Z M 392.371094 64.222656 C 393.742188 64.058594 395.003906 63.894531 396.371094 63.894531 L 403.988281 63.894531 L 403.988281 62.304688 L 402.125 62.304688 C 400.480469 62.304688 399.933594 61.59375 399.933594 58.578125 L 399.933594 48.332031 C 399.933594 44.109375 400.210938 36.4375 400.210938 36.4375 L 388.644531 36.4375 L 388.644531 38.027344 L 389.851563 38.027344 C 391.492188 38.027344 392.042969 38.738281 392.042969 41.753906 L 392.042969 51.945313 C 392.042969 58.632813 390.234375 61.375 387.054688 61.375 C 383.984375 61.375 383.273438 58.25 383.273438 55.566406 L 383.273438 48.332031 C 383.273438 44.109375 383.546875 36.4375 383.546875 36.4375 L 371.984375 36.4375 L 371.984375 38.027344 L 373.1875 38.027344 C 374.832031 38.027344 375.382813 38.738281 375.382813 41.753906 L 375.382813 56.988281 C 375.382813 61.539063 378.011719 64.773438 383.382813 64.773438 C 387.4375 64.773438 390.070313 63.015625 392.261719 59.894531 Z M 344.136719 62.136719 C 344.136719 62.136719 351.460938 64.773438 356.738281 64.773438 C 363.917969 64.773438 370.277344 60.222656 370.277344 52.441406 C 370.277344 36.601563 349.394531 41.535156 349.394531 32.054688 C 349.394531 27.777344 353.34375 25.914063 357.066406 25.914063 C 362.109375 25.914063 365.945313 29.257813 366.277344 34.191406 L 368.359375 34.191406 L 368.359375 26.570313 C 368.359375 26.570313 361.546875 23.996094 356.796875 23.996094 C 349.671875 23.996094 343.804688 28.050781 343.804688 35.78125 C 343.804688 50.25 364.355469 45.644531 364.355469 55.839844 C 364.355469 60.167969 361.34375 62.855469 356.738281 62.855469 C 351.097656 62.855469 346.21875 58.90625 346.21875 53.480469 L 344.136719 53.480469 Z M 215.632813 36.4375 L 215.632813 38.027344 L 208.113281 38.027344 L 208.113281 57.140625 C 208.113281 60.425781 208.113281 62.839844 210.632813 62.839844 C 210.878906 62.839844 212.253906 62.808594 212.453125 62.757813 L 212.453125 64.113281 C 211.53125 64.441406 209.28125 64.773438 208.003906 64.773438 C 202.359375 64.773438 200.21875 61.265625 200.21875 57.59375 L 200.21875 38.027344 L 196.382813 38.027344 L 196.382813 36.4375 C 201.808594 36.109375 205.261719 30.847656 206.46875 25.914063 L 208.113281 25.914063 L 208.113281 36.4375 Z M 219.289063 63.894531 L 230.578125 63.894531 L 230.578125 62.304688 L 229.371094 62.304688 C 227.726563 62.304688 227.179688 61.59375 227.179688 58.578125 L 227.179688 48.382813 C 227.179688 44.988281 227.179688 38.957031 232.441406 38.957031 C 235.949219 38.957031 235.949219 42.082031 235.949219 44.769531 L 235.949219 63.894531 L 247.238281 63.894531 L 247.238281 62.304688 L 246.03125 62.304688 C 244.390625 62.304688 243.839844 61.59375 243.839844 58.578125 L 243.839844 43.34375 C 243.839844 38.792969 241.210938 35.5625 235.839844 35.5625 C 231.785156 35.5625 228.878906 37.480469 227.289063 40.164063 L 227.179688 23.066406 L 215.230469 23.066406 L 215.230469 24.652344 L 217.09375 24.652344 C 218.738281 24.652344 219.289063 25.367188 219.289063 28.382813 Z M 306.5625 63.894531 L 317.851563 63.894531 L 317.851563 62.304688 L 316.644531 62.304688 C 315.003906 62.304688 314.453125 61.59375 314.453125 58.578125 L 314.453125 48.382813 C 314.453125 44.988281 314.453125 38.957031 319.714844 38.957031 C 323.222656 38.957031 323.222656 42.082031 323.222656 44.769531 L 323.222656 63.894531 L 334.515625 63.894531 L 334.515625 62.304688 L 333.308594 62.304688 C 331.664063 62.304688 331.117188 61.59375 331.117188 58.578125 L 331.117188 43.34375 C 331.117188 38.792969 328.484375 35.5625 323.113281 35.5625 C 319.058594 35.5625 316.425781 37.316406 314.234375 40.4375 L 314.125 36.4375 L 303.308594 36.4375 L 303.308594 38.027344 L 304.371094 38.027344 C 306.015625 38.027344 306.5625 38.738281 306.5625 41.753906 Z M 165.890625 39.648438 C 165.890625 36.742188 162.519531 34.902344 156.824219 39.070313 C 155.742188 39.890625 154.601563 40.917969 153.644531 41.847656 C 155.167969 41.148438 156.484375 40.644531 157.589844 40.332031 C 159.125 42.742188 159.925781 45.804688 159.925781 49.261719 C 159.925781 57.8125 155.101563 63.894531 146.390625 63.894531 C 137.675781 63.894531 132.851563 57.8125 132.851563 49.261719 C 132.851563 40.765625 137.675781 34.683594 146.390625 34.683594 C 150.179688 34.683594 153.234375 35.835938 155.476563 37.835938 C 163.308594 31.027344 173.78125 34.226563 173.78125 41.402344 L 173.78125 54.6875 C 173.78125 57.371094 174.492188 60.496094 177.5625 60.496094 C 180.742188 60.496094 182.550781 57.757813 182.550781 51.070313 L 182.550781 40.875 C 182.550781 37.863281 182 37.148438 180.355469 37.148438 L 179.152344 37.148438 L 179.152344 35.558594 L 190.714844 35.558594 C 190.714844 35.558594 190.441406 43.234375 190.441406 47.453125 L 190.441406 57.703125 C 190.441406 60.714844 190.988281 61.429688 192.632813 61.429688 L 194.496094 61.429688 L 194.496094 63.015625 L 186.878906 63.015625 C 185.507813 63.015625 184.25 63.183594 182.878906 63.347656 L 182.769531 59.015625 C 180.574219 62.140625 177.945313 63.894531 173.890625 63.894531 C 168.519531 63.894531 165.890625 60.660156 165.890625 56.113281 L 165.890625 39.648438 "/>
</g>
<g clip-path="url(#clip2)" clip-rule="nonzero">
<path style=" stroke:none;fill-rule:evenodd;fill:rgb(13.699341%,12.199402%,12.5%);fill-opacity:1;" d="M 45.074219 36.882813 C 37.238281 36.882813 30.886719 30.828125 30.886719 23.359375 C 30.886719 19.863281 32.28125 16.675781 34.570313 14.273438 C 34.765625 14.066406 34.65625 13.527344 34.199219 13.527344 C 34.035156 13.527344 33.90625 13.632813 33.785156 13.726563 C 29.496094 17.082031 26.742188 22.304688 26.742188 28.171875 C 26.742188 38.292969 34.949219 46.496094 45.074219 46.496094 C 55.195313 46.496094 63.402344 38.292969 63.402344 28.171875 C 63.402344 22.304688 60.644531 17.082031 56.359375 13.726563 C 56.238281 13.632813 56.105469 13.527344 55.941406 13.527344 C 55.484375 13.527344 55.375 14.066406 55.574219 14.273438 C 57.859375 16.675781 59.253906 19.863281 59.253906 23.359375 C 59.253906 30.828125 52.90625 36.882813 45.074219 36.882813 Z M 45.070313 77.328125 C 69.960938 77.328125 90.148438 57.421875 90.148438 32.863281 C 90.148438 19.953125 84.574219 8.328125 75.667969 0.203125 C 75.554688 0.101563 75.429688 0 75.265625 0 C 75.011719 0 74.808594 0.203125 74.808594 0.457031 C 74.808594 0.5625 74.84375 0.660156 74.90625 0.738281 C 80.648438 7.382813 84.109375 15.972656 84.109375 25.351563 C 84.109375 46.425781 66.636719 63.507813 45.078125 63.507813 C 23.523438 63.507813 6.039063 46.425781 6.039063 25.351563 C 6.039063 15.972656 9.5 7.382813 15.242188 0.738281 C 15.304688 0.660156 15.339844 0.5625 15.339844 0.457031 C 15.339844 0.203125 15.136719 0 14.882813 0 C 14.71875 0 14.59375 0.101563 14.480469 0.203125 C 5.574219 8.328125 0 19.953125 0 32.863281 C 0 57.421875 20.175781 77.328125 45.070313 77.328125 Z M 45.078125 48.933594 C 29.679688 48.933594 17.1875 37.636719 17.1875 23.695313 C 17.1875 17.289063 19.824219 11.441406 24.167969 6.992188 C 24.230469 6.914063 24.273438 6.816406 24.273438 6.707031 C 24.273438 6.457031 24.066406 6.253906 23.816406 6.253906 C 23.652344 6.253906 23.523438 6.355469 23.410156 6.457031 C 16.964844 12.0625 12.917969 20.132813 12.917969 29.105469 C 12.917969 46.03125 26.152344 60.953125 45.070313 60.953125 C 63.984375 60.953125 77.230469 46.03125 77.230469 29.105469 C 77.230469 20.132813 73.183594 12.0625 66.738281 6.457031 C 66.625 6.355469 66.5 6.253906 66.335938 6.253906 C 66.082031 6.253906 65.878906 6.457031 65.878906 6.707031 C 65.878906 6.816406 65.917969 6.914063 65.980469 6.992188 C 70.324219 11.441406 72.960938 17.289063 72.960938 23.695313 C 72.960938 37.636719 60.480469 48.933594 45.078125 48.933594 "/>
</g>
</g>
</svg>
